<mxfile host="Electron" agent="Mozilla/5.0 (X11; Linux x86_64) AppleWebKit/537.36 (KHTML, like Gecko) draw.io/26.2.2 Chrome/134.0.6998.178 Electron/35.1.2 Safari/537.36" version="26.2.2" pages="10">
  <diagram name="Persistency" id="safnCi0ywybFVfCtsGNU">
    <mxGraphModel dx="2452" dy="2092" grid="1" gridSize="10" guides="1" tooltips="1" connect="1" arrows="1" fold="1" page="1" pageScale="1" pageWidth="850" pageHeight="1100" math="0" shadow="0">
      <root>
        <mxCell id="0" />
        <mxCell id="1" parent="0" />
        <mxCell id="Cc3Bo69zgKsmx6tdAahY-10" style="rounded=0;orthogonalLoop=1;jettySize=auto;html=1;dashed=1;endSize=16;endArrow=open;endFill=0;dashPattern=8 8;fontSize=14;" edge="1" parent="1" source="Cc3Bo69zgKsmx6tdAahY-1" target="Cc3Bo69zgKsmx6tdAahY-2">
          <mxGeometry relative="1" as="geometry" />
        </mxCell>
        <mxCell id="Cc3Bo69zgKsmx6tdAahY-1" value="&lt;p style=&quot;margin:0px;margin-top:4px;text-align:center;&quot;&gt;&lt;b&gt;&amp;lt;&amp;lt;role&amp;gt;&amp;gt;&lt;/b&gt;&lt;/p&gt;&lt;p style=&quot;margin:0px;margin-top:4px;text-align:center;&quot;&gt;&lt;b&gt;PersistencyClient&lt;/b&gt;&lt;/p&gt;&lt;p style=&quot;margin:0px;margin-top:4px;text-align:center;&quot;&gt;&lt;b&gt;(from SamplePersistency Client)&lt;/b&gt;&lt;/p&gt;&lt;hr style=&quot;border-style:solid;&quot;&gt;&lt;p style=&quot;margin:0px;margin-left:4px;&quot;&gt;&lt;br&gt;&lt;/p&gt;&lt;hr style=&quot;border-style:solid;&quot;&gt;&lt;p style=&quot;margin:0px;margin-left:4px;&quot;&gt;&lt;br&gt;&lt;/p&gt;" style="verticalAlign=top;align=left;overflow=fill;html=1;whiteSpace=wrap;fontSize=14;" vertex="1" parent="1">
          <mxGeometry x="-70" width="230" height="140" as="geometry" />
        </mxCell>
        <mxCell id="Cc3Bo69zgKsmx6tdAahY-2" value="&lt;p style=&quot;margin:0px;margin-top:4px;text-align:center;&quot;&gt;&lt;b&gt;&amp;lt;&amp;lt;role&amp;gt;&amp;gt;&lt;/b&gt;&lt;/p&gt;&lt;p style=&quot;margin:0px;margin-top:4px;text-align:center;&quot;&gt;&lt;b&gt;DBClass&lt;/b&gt;&lt;/p&gt;&lt;hr style=&quot;border-style:solid;&quot;&gt;&lt;p style=&quot;margin:0px;margin-left:4px;&quot;&gt;&lt;br&gt;&lt;/p&gt;&lt;hr style=&quot;border-style:solid;&quot;&gt;&lt;p style=&quot;margin:0px;margin-left:4px;&quot;&gt;+create(): PersistentClass&lt;/p&gt;&lt;p style=&quot;margin:0px;margin-left:4px;&quot;&gt;+read(searchCriteria: String): PersistentClassList&lt;/p&gt;&lt;p style=&quot;margin:0px;margin-left:4px;&quot;&gt;+update(c: PersistentClass)&lt;/p&gt;&lt;p style=&quot;margin:0px;margin-left:4px;&quot;&gt;+delete(c: PersistentClass)&lt;/p&gt;" style="verticalAlign=top;align=left;overflow=fill;html=1;whiteSpace=wrap;fontSize=14;" vertex="1" parent="1">
          <mxGeometry x="-90" y="260" width="330" height="160" as="geometry" />
        </mxCell>
        <mxCell id="Cc3Bo69zgKsmx6tdAahY-3" value="&lt;p style=&quot;margin:0px;margin-top:4px;text-align:center;&quot;&gt;&lt;b&gt;&amp;lt;&amp;lt;role&amp;gt;&amp;gt;&lt;/b&gt;&lt;/p&gt;&lt;p style=&quot;margin:0px;margin-top:4px;text-align:center;&quot;&gt;&lt;b&gt;PersistentClassList&lt;/b&gt;&lt;/p&gt;&lt;p style=&quot;margin:0px;margin-top:4px;text-align:center;&quot;&gt;&lt;b&gt;(from SamplePersistentClass)&lt;/b&gt;&lt;/p&gt;&lt;hr style=&quot;border-style:solid;&quot;&gt;&lt;p style=&quot;margin:0px;margin-left:4px;&quot;&gt;&lt;br&gt;&lt;/p&gt;&lt;hr style=&quot;border-style:solid;&quot;&gt;&lt;p style=&quot;margin:0px;margin-left:4px;&quot;&gt;+new()&lt;/p&gt;&lt;p style=&quot;margin:0px;margin-left:4px;&quot;&gt;+add(c: PersistentClass)&lt;/p&gt;" style="verticalAlign=top;align=left;overflow=fill;html=1;whiteSpace=wrap;fontSize=14;" vertex="1" parent="1">
          <mxGeometry x="450" y="-20" width="270" height="160" as="geometry" />
        </mxCell>
        <mxCell id="Cc3Bo69zgKsmx6tdAahY-4" value="&lt;p style=&quot;margin:0px;margin-top:4px;text-align:center;&quot;&gt;&lt;b&gt;&amp;lt;&amp;lt;role&amp;gt;&amp;gt;&lt;/b&gt;&lt;/p&gt;&lt;p style=&quot;margin:0px;margin-top:4px;text-align:center;&quot;&gt;&lt;b&gt;PersistentClass&lt;/b&gt;&lt;/p&gt;&lt;p style=&quot;margin:0px;margin-top:4px;text-align:center;&quot;&gt;&lt;b&gt;(from SamplePersistentClass)&lt;/b&gt;&lt;/p&gt;&lt;hr style=&quot;border-style:solid;&quot;&gt;&lt;p style=&quot;margin:0px;margin-left:4px;&quot;&gt;&lt;br&gt;&lt;/p&gt;&lt;hr style=&quot;border-style:solid;&quot;&gt;&lt;p style=&quot;margin:0px;margin-left:4px;&quot;&gt;+getData()&lt;/p&gt;&lt;p style=&quot;margin:0px;margin-left:4px;&quot;&gt;+setData()&lt;/p&gt;&lt;p style=&quot;margin:0px;margin-left:4px;&quot;&gt;+command()&lt;/p&gt;&lt;p style=&quot;margin:0px;margin-left:4px;&quot;&gt;+new()&lt;/p&gt;" style="verticalAlign=top;align=left;overflow=fill;html=1;whiteSpace=wrap;fontSize=14;" vertex="1" parent="1">
          <mxGeometry x="435" y="170" width="285" height="180" as="geometry" />
        </mxCell>
        <mxCell id="Cc3Bo69zgKsmx6tdAahY-5" value="&lt;p style=&quot;margin:0px;margin-top:4px;text-align:center;&quot;&gt;&lt;b&gt;DriverManager&lt;/b&gt;&lt;/p&gt;&lt;p style=&quot;margin:0px;margin-top:4px;text-align:center;&quot;&gt;&lt;b&gt;(from java.sql)&lt;/b&gt;&lt;/p&gt;&lt;hr style=&quot;border-style:solid;&quot;&gt;&lt;p style=&quot;margin:0px;margin-left:4px;&quot;&gt;&lt;br&gt;&lt;/p&gt;&lt;hr style=&quot;border-style:solid;&quot;&gt;&lt;p style=&quot;margin:0px;margin-left:4px;&quot;&gt;+getConnection(url, user, pass): Connection&lt;/p&gt;" style="verticalAlign=top;align=left;overflow=fill;html=1;whiteSpace=wrap;fontSize=14;" vertex="1" parent="1">
          <mxGeometry x="440" y="390" width="280" height="160" as="geometry" />
        </mxCell>
        <mxCell id="Cc3Bo69zgKsmx6tdAahY-7" value="&lt;p style=&quot;margin:0px;margin-top:4px;text-align:center;&quot;&gt;&lt;b&gt;Connection&lt;/b&gt;&lt;/p&gt;&lt;p style=&quot;margin:0px;margin-top:4px;text-align:center;&quot;&gt;&lt;b&gt;(from java.sql)&lt;/b&gt;&lt;/p&gt;&lt;hr style=&quot;border-style:solid;&quot;&gt;&lt;p style=&quot;margin:0px;margin-left:4px;&quot;&gt;&lt;br&gt;&lt;/p&gt;&lt;hr style=&quot;border-style:solid;&quot;&gt;&lt;p style=&quot;margin:0px;margin-left:4px;&quot;&gt;+createStatement(): Statement&lt;/p&gt;" style="verticalAlign=top;align=left;overflow=fill;html=1;whiteSpace=wrap;fontSize=14;" vertex="1" parent="1">
          <mxGeometry x="460" y="610" width="220" height="160" as="geometry" />
        </mxCell>
        <mxCell id="Cc3Bo69zgKsmx6tdAahY-8" value="&lt;p style=&quot;margin:0px;margin-top:4px;text-align:center;&quot;&gt;&lt;b style=&quot;background-color: transparent; color: light-dark(rgb(0, 0, 0), rgb(255, 255, 255));&quot;&gt;Statement&lt;/b&gt;&lt;/p&gt;&lt;p style=&quot;margin:0px;margin-top:4px;text-align:center;&quot;&gt;&lt;b style=&quot;background-color: transparent; color: light-dark(rgb(0, 0, 0), rgb(255, 255, 255));&quot;&gt;(from java.sql)&lt;/b&gt;&lt;/p&gt;&lt;hr style=&quot;border-style:solid;&quot;&gt;&lt;p style=&quot;margin:0px;margin-left:4px;&quot;&gt;&lt;br&gt;&lt;/p&gt;&lt;hr style=&quot;border-style:solid;&quot;&gt;&lt;p style=&quot;margin:0px;margin-left:4px;&quot;&gt;+executeQuery(sql: String): ResultSet&lt;/p&gt;&lt;p style=&quot;margin:0px;margin-left:4px;&quot;&gt;+excuteUpdate(sql: String): int&lt;/p&gt;" style="verticalAlign=top;align=left;overflow=fill;html=1;whiteSpace=wrap;fontSize=14;" vertex="1" parent="1">
          <mxGeometry x="170" y="610" width="240" height="160" as="geometry" />
        </mxCell>
        <mxCell id="Cc3Bo69zgKsmx6tdAahY-9" value="&lt;p style=&quot;margin:0px;margin-top:4px;text-align:center;&quot;&gt;&lt;b style=&quot;background-color: transparent; color: light-dark(rgb(0, 0, 0), rgb(255, 255, 255));&quot;&gt;ResultSet&lt;/b&gt;&lt;/p&gt;&lt;p style=&quot;margin:0px;margin-top:4px;text-align:center;&quot;&gt;&lt;b style=&quot;background-color: transparent; color: light-dark(rgb(0, 0, 0), rgb(255, 255, 255));&quot;&gt;(from java.sql)&lt;/b&gt;&lt;/p&gt;&lt;hr style=&quot;border-style:solid;&quot;&gt;&lt;p style=&quot;margin:0px;margin-left:4px;&quot;&gt;&lt;span style=&quot;background-color: transparent; color: light-dark(rgb(0, 0, 0), rgb(255, 255, 255));&quot;&gt;+getString(): String&lt;/span&gt;&lt;/p&gt;" style="verticalAlign=top;align=left;overflow=fill;html=1;whiteSpace=wrap;fontSize=14;" vertex="1" parent="1">
          <mxGeometry x="-90" y="610" width="200" height="160" as="geometry" />
        </mxCell>
        <mxCell id="Cc3Bo69zgKsmx6tdAahY-12" style="rounded=0;orthogonalLoop=1;jettySize=auto;html=1;dashed=1;endSize=16;endArrow=open;endFill=0;dashPattern=8 8;fontSize=14;" edge="1" parent="1" source="Cc3Bo69zgKsmx6tdAahY-2" target="Cc3Bo69zgKsmx6tdAahY-3">
          <mxGeometry relative="1" as="geometry">
            <mxPoint x="185" y="200" as="sourcePoint" />
            <mxPoint x="185" y="250" as="targetPoint" />
          </mxGeometry>
        </mxCell>
        <mxCell id="Cc3Bo69zgKsmx6tdAahY-13" style="rounded=0;orthogonalLoop=1;jettySize=auto;html=1;dashed=1;endSize=16;endArrow=open;endFill=0;dashPattern=8 8;fontSize=14;" edge="1" parent="1" source="Cc3Bo69zgKsmx6tdAahY-2" target="Cc3Bo69zgKsmx6tdAahY-4">
          <mxGeometry relative="1" as="geometry">
            <mxPoint x="375" y="255" as="sourcePoint" />
            <mxPoint x="550" y="185" as="targetPoint" />
          </mxGeometry>
        </mxCell>
        <mxCell id="Cc3Bo69zgKsmx6tdAahY-14" style="rounded=0;orthogonalLoop=1;jettySize=auto;html=1;dashed=1;endSize=16;endArrow=open;endFill=0;dashPattern=8 8;fontSize=14;" edge="1" parent="1" source="Cc3Bo69zgKsmx6tdAahY-2" target="Cc3Bo69zgKsmx6tdAahY-5">
          <mxGeometry relative="1" as="geometry">
            <mxPoint x="385" y="265" as="sourcePoint" />
            <mxPoint x="560" y="195" as="targetPoint" />
          </mxGeometry>
        </mxCell>
        <mxCell id="Cc3Bo69zgKsmx6tdAahY-15" style="rounded=0;orthogonalLoop=1;jettySize=auto;html=1;dashed=1;endSize=16;endArrow=open;endFill=0;dashPattern=8 8;fontSize=14;" edge="1" parent="1" source="Cc3Bo69zgKsmx6tdAahY-5" target="Cc3Bo69zgKsmx6tdAahY-7">
          <mxGeometry relative="1" as="geometry">
            <mxPoint x="215" y="225" as="sourcePoint" />
            <mxPoint x="500" y="578.125" as="targetPoint" />
          </mxGeometry>
        </mxCell>
        <mxCell id="Cc3Bo69zgKsmx6tdAahY-16" style="rounded=0;orthogonalLoop=1;jettySize=auto;html=1;dashed=1;endSize=16;endArrow=open;endFill=0;dashPattern=8 8;fontSize=14;" edge="1" parent="1" source="Cc3Bo69zgKsmx6tdAahY-2" target="Cc3Bo69zgKsmx6tdAahY-8">
          <mxGeometry relative="1" as="geometry">
            <mxPoint x="405" y="285" as="sourcePoint" />
            <mxPoint x="580" y="215" as="targetPoint" />
          </mxGeometry>
        </mxCell>
        <mxCell id="Cc3Bo69zgKsmx6tdAahY-17" style="rounded=0;orthogonalLoop=1;jettySize=auto;html=1;dashed=1;endSize=16;endArrow=open;endFill=0;dashPattern=8 8;fontSize=14;" edge="1" parent="1" source="Cc3Bo69zgKsmx6tdAahY-2" target="Cc3Bo69zgKsmx6tdAahY-9">
          <mxGeometry relative="1" as="geometry">
            <mxPoint x="415" y="295" as="sourcePoint" />
            <mxPoint x="590" y="225" as="targetPoint" />
          </mxGeometry>
        </mxCell>
        <mxCell id="Cc3Bo69zgKsmx6tdAahY-18" style="rounded=0;orthogonalLoop=1;jettySize=auto;html=1;endSize=16;endArrow=open;endFill=0;fontSize=14;" edge="1" parent="1" source="Cc3Bo69zgKsmx6tdAahY-2" target="Cc3Bo69zgKsmx6tdAahY-7">
          <mxGeometry relative="1" as="geometry">
            <mxPoint x="235" y="389" as="sourcePoint" />
            <mxPoint x="450" y="444" as="targetPoint" />
          </mxGeometry>
        </mxCell>
        <mxCell id="Cc3Bo69zgKsmx6tdAahY-19" value="1" style="text;html=1;align=center;verticalAlign=middle;resizable=0;points=[];autosize=1;strokeColor=none;fillColor=none;fontSize=14;" vertex="1" parent="1">
          <mxGeometry x="175" y="418" width="30" height="30" as="geometry" />
        </mxCell>
        <mxCell id="Cc3Bo69zgKsmx6tdAahY-20" value="1" style="text;html=1;align=center;verticalAlign=middle;resizable=0;points=[];autosize=1;strokeColor=none;fillColor=none;fontSize=14;" vertex="1" parent="1">
          <mxGeometry x="445" y="578" width="30" height="30" as="geometry" />
        </mxCell>
      </root>
    </mxGraphModel>
  </diagram>
  <diagram id="aZOSlKhhzZzpq43lnewR" name="Initialize">
    <mxGraphModel dx="1362" dy="843" grid="1" gridSize="10" guides="1" tooltips="1" connect="1" arrows="1" fold="1" page="1" pageScale="1" pageWidth="850" pageHeight="1100" math="0" shadow="0">
      <root>
        <mxCell id="0" />
        <mxCell id="1" parent="0" />
        <mxCell id="UYvqVl0TZ4U8rji2i2-W-1" value=":DBClass" style="shape=umlLifeline;whiteSpace=wrap;html=1;container=1;dropTarget=0;collapsible=0;recursiveResize=0;outlineConnect=0;portConstraint=eastwest;newEdgeStyle={&quot;curved&quot;:0,&quot;rounded&quot;:0};points=[[0,0,0,0,5],[0,1,0,0,-5],[1,0,0,0,5],[1,1,0,0,-5]];perimeter=rectanglePerimeter;targetShapes=umlLifeline;participant=label;fontSize=14;" vertex="1" parent="1">
          <mxGeometry x="210" y="170" width="100" height="190" as="geometry" />
        </mxCell>
        <mxCell id="UYvqVl0TZ4U8rji2i2-W-3" value="" style="html=1;points=[[0,0,0,0,5],[0,1,0,0,-5],[1,0,0,0,5],[1,1,0,0,-5]];perimeter=orthogonalPerimeter;outlineConnect=0;targetShapes=umlLifeline;portConstraint=eastwest;newEdgeStyle={&quot;curved&quot;:0,&quot;rounded&quot;:0};fontSize=14;" vertex="1" parent="UYvqVl0TZ4U8rji2i2-W-1">
          <mxGeometry x="45" y="70" width="10" height="80" as="geometry" />
        </mxCell>
        <mxCell id="UYvqVl0TZ4U8rji2i2-W-2" value=":DriverManager" style="shape=umlLifeline;perimeter=lifelinePerimeter;whiteSpace=wrap;html=1;container=1;dropTarget=0;collapsible=0;recursiveResize=0;outlineConnect=0;portConstraint=eastwest;newEdgeStyle={&quot;curved&quot;:0,&quot;rounded&quot;:0};fontSize=14;" vertex="1" parent="1">
          <mxGeometry x="460" y="170" width="100" height="190" as="geometry" />
        </mxCell>
        <mxCell id="UYvqVl0TZ4U8rji2i2-W-5" value="" style="html=1;points=[[0,0,0,0,5],[0,1,0,0,-5],[1,0,0,0,5],[1,1,0,0,-5]];perimeter=orthogonalPerimeter;outlineConnect=0;targetShapes=umlLifeline;portConstraint=eastwest;newEdgeStyle={&quot;curved&quot;:0,&quot;rounded&quot;:0};fontSize=14;" vertex="1" parent="UYvqVl0TZ4U8rji2i2-W-2">
          <mxGeometry x="45" y="90" width="10" height="30" as="geometry" />
        </mxCell>
        <mxCell id="UYvqVl0TZ4U8rji2i2-W-8" value="1. getConnection(url, user, pass)" style="html=1;verticalAlign=bottom;endArrow=block;curved=0;rounded=0;fontSize=14;" edge="1" parent="1" source="UYvqVl0TZ4U8rji2i2-W-3" target="UYvqVl0TZ4U8rji2i2-W-5">
          <mxGeometry width="80" relative="1" as="geometry">
            <mxPoint x="280" y="270" as="sourcePoint" />
            <mxPoint x="425" y="270" as="targetPoint" />
            <Array as="points">
              <mxPoint x="350" y="270" />
            </Array>
          </mxGeometry>
        </mxCell>
      </root>
    </mxGraphModel>
  </diagram>
  <diagram id="CJeZuwG-cCQ3fw-xnLv-" name="Create">
    <mxGraphModel dx="1362" dy="843" grid="1" gridSize="10" guides="1" tooltips="1" connect="1" arrows="1" fold="1" page="1" pageScale="1" pageWidth="850" pageHeight="1100" math="0" shadow="0">
      <root>
        <mxCell id="0" />
        <mxCell id="1" parent="0" />
        <mxCell id="3BzVvhqZFTO5cRdmQMtQ-1" value=":PersistencyClient" style="shape=umlLifeline;whiteSpace=wrap;html=1;container=1;dropTarget=0;collapsible=0;recursiveResize=0;outlineConnect=0;portConstraint=eastwest;newEdgeStyle={&quot;curved&quot;:0,&quot;rounded&quot;:0};points=[[0,0,0,0,5],[0,1,0,0,-5],[1,0,0,0,5],[1,1,0,0,-5]];perimeter=rectanglePerimeter;targetShapes=umlLifeline;participant=label;fontSize=14;" vertex="1" parent="1">
          <mxGeometry x="200" y="170" width="120" height="350" as="geometry" />
        </mxCell>
        <mxCell id="3BzVvhqZFTO5cRdmQMtQ-2" value="" style="html=1;points=[[0,0,0,0,5],[0,1,0,0,-5],[1,0,0,0,5],[1,1,0,0,-5]];perimeter=orthogonalPerimeter;outlineConnect=0;targetShapes=umlLifeline;portConstraint=eastwest;newEdgeStyle={&quot;curved&quot;:0,&quot;rounded&quot;:0};fontSize=14;" vertex="1" parent="3BzVvhqZFTO5cRdmQMtQ-1">
          <mxGeometry x="55" y="70" width="10" height="240" as="geometry" />
        </mxCell>
        <mxCell id="3BzVvhqZFTO5cRdmQMtQ-3" value=":DBClass" style="shape=umlLifeline;perimeter=lifelinePerimeter;whiteSpace=wrap;html=1;container=1;dropTarget=0;collapsible=0;recursiveResize=0;outlineConnect=0;portConstraint=eastwest;newEdgeStyle={&quot;curved&quot;:0,&quot;rounded&quot;:0};fontSize=14;" vertex="1" parent="1">
          <mxGeometry x="350" y="170" width="100" height="350" as="geometry" />
        </mxCell>
        <mxCell id="3BzVvhqZFTO5cRdmQMtQ-4" value="" style="html=1;points=[[0,0,0,0,5],[0,1,0,0,-5],[1,0,0,0,5],[1,1,0,0,-5]];perimeter=orthogonalPerimeter;outlineConnect=0;targetShapes=umlLifeline;portConstraint=eastwest;newEdgeStyle={&quot;curved&quot;:0,&quot;rounded&quot;:0};fontSize=14;" vertex="1" parent="3BzVvhqZFTO5cRdmQMtQ-3">
          <mxGeometry x="45" y="90" width="10" height="220" as="geometry" />
        </mxCell>
        <mxCell id="3BzVvhqZFTO5cRdmQMtQ-5" value="1. create()" style="html=1;verticalAlign=bottom;endArrow=block;curved=0;rounded=0;fontSize=14;" edge="1" parent="1" source="3BzVvhqZFTO5cRdmQMtQ-2" target="3BzVvhqZFTO5cRdmQMtQ-4">
          <mxGeometry width="80" relative="1" as="geometry">
            <mxPoint x="265" y="260" as="sourcePoint" />
            <mxPoint x="505" y="260" as="targetPoint" />
            <Array as="points">
              <mxPoint x="350" y="260" />
            </Array>
          </mxGeometry>
        </mxCell>
        <mxCell id="3BzVvhqZFTO5cRdmQMtQ-6" value=":PersistentClass" style="shape=umlLifeline;perimeter=lifelinePerimeter;whiteSpace=wrap;html=1;container=1;dropTarget=0;collapsible=0;recursiveResize=0;outlineConnect=0;portConstraint=eastwest;newEdgeStyle={&quot;curved&quot;:0,&quot;rounded&quot;:0};fontSize=14;" vertex="1" parent="1">
          <mxGeometry x="490" y="170" width="100" height="350" as="geometry" />
        </mxCell>
        <mxCell id="3BzVvhqZFTO5cRdmQMtQ-7" value="" style="html=1;points=[[0,0,0,0,5],[0,1,0,0,-5],[1,0,0,0,5],[1,1,0,0,-5]];perimeter=orthogonalPerimeter;outlineConnect=0;targetShapes=umlLifeline;portConstraint=eastwest;newEdgeStyle={&quot;curved&quot;:0,&quot;rounded&quot;:0};fontSize=14;" vertex="1" parent="3BzVvhqZFTO5cRdmQMtQ-6">
          <mxGeometry x="45" y="110" width="10" height="30" as="geometry" />
        </mxCell>
        <mxCell id="3BzVvhqZFTO5cRdmQMtQ-13" value="" style="html=1;points=[[0,0,0,0,5],[0,1,0,0,-5],[1,0,0,0,5],[1,1,0,0,-5]];perimeter=orthogonalPerimeter;outlineConnect=0;targetShapes=umlLifeline;portConstraint=eastwest;newEdgeStyle={&quot;curved&quot;:0,&quot;rounded&quot;:0};fontSize=14;" vertex="1" parent="3BzVvhqZFTO5cRdmQMtQ-6">
          <mxGeometry x="45" y="160" width="10" height="30" as="geometry" />
        </mxCell>
        <mxCell id="3BzVvhqZFTO5cRdmQMtQ-8" value=":Connection" style="shape=umlLifeline;perimeter=lifelinePerimeter;whiteSpace=wrap;html=1;container=1;dropTarget=0;collapsible=0;recursiveResize=0;outlineConnect=0;portConstraint=eastwest;newEdgeStyle={&quot;curved&quot;:0,&quot;rounded&quot;:0};fontSize=14;" vertex="1" parent="1">
          <mxGeometry x="610" y="170" width="100" height="350" as="geometry" />
        </mxCell>
        <mxCell id="3BzVvhqZFTO5cRdmQMtQ-9" value="" style="html=1;points=[[0,0,0,0,5],[0,1,0,0,-5],[1,0,0,0,5],[1,1,0,0,-5]];perimeter=orthogonalPerimeter;outlineConnect=0;targetShapes=umlLifeline;portConstraint=eastwest;newEdgeStyle={&quot;curved&quot;:0,&quot;rounded&quot;:0};fontSize=14;" vertex="1" parent="3BzVvhqZFTO5cRdmQMtQ-8">
          <mxGeometry x="45" y="220" width="10" height="30" as="geometry" />
        </mxCell>
        <mxCell id="3BzVvhqZFTO5cRdmQMtQ-10" value=":Statement" style="shape=umlLifeline;perimeter=lifelinePerimeter;whiteSpace=wrap;html=1;container=1;dropTarget=0;collapsible=0;recursiveResize=0;outlineConnect=0;portConstraint=eastwest;newEdgeStyle={&quot;curved&quot;:0,&quot;rounded&quot;:0};fontSize=14;" vertex="1" parent="1">
          <mxGeometry x="740" y="170" width="100" height="350" as="geometry" />
        </mxCell>
        <mxCell id="3BzVvhqZFTO5cRdmQMtQ-11" value="" style="html=1;points=[[0,0,0,0,5],[0,1,0,0,-5],[1,0,0,0,5],[1,1,0,0,-5]];perimeter=orthogonalPerimeter;outlineConnect=0;targetShapes=umlLifeline;portConstraint=eastwest;newEdgeStyle={&quot;curved&quot;:0,&quot;rounded&quot;:0};fontSize=14;" vertex="1" parent="3BzVvhqZFTO5cRdmQMtQ-10">
          <mxGeometry x="45" y="270" width="10" height="30" as="geometry" />
        </mxCell>
        <mxCell id="3BzVvhqZFTO5cRdmQMtQ-12" value="1.1 new()" style="html=1;verticalAlign=bottom;endArrow=block;curved=0;rounded=0;fontSize=14;" edge="1" parent="1" target="3BzVvhqZFTO5cRdmQMtQ-7">
          <mxGeometry width="80" relative="1" as="geometry">
            <mxPoint x="405" y="280" as="sourcePoint" />
            <mxPoint x="595" y="280" as="targetPoint" />
            <Array as="points" />
          </mxGeometry>
        </mxCell>
        <mxCell id="3BzVvhqZFTO5cRdmQMtQ-14" value="1.2 getData()" style="html=1;verticalAlign=bottom;endArrow=block;curved=0;rounded=0;fontSize=14;" edge="1" parent="1" target="3BzVvhqZFTO5cRdmQMtQ-13">
          <mxGeometry width="80" relative="1" as="geometry">
            <mxPoint x="405" y="330" as="sourcePoint" />
            <mxPoint x="595" y="330" as="targetPoint" />
            <Array as="points" />
          </mxGeometry>
        </mxCell>
        <mxCell id="3BzVvhqZFTO5cRdmQMtQ-15" value="1.3 ceateStatement()" style="html=1;verticalAlign=bottom;endArrow=block;curved=0;rounded=0;fontSize=14;" edge="1" parent="1" target="3BzVvhqZFTO5cRdmQMtQ-9">
          <mxGeometry width="80" relative="1" as="geometry">
            <mxPoint x="410" y="390" as="sourcePoint" />
            <mxPoint x="610" y="390" as="targetPoint" />
            <Array as="points" />
          </mxGeometry>
        </mxCell>
        <mxCell id="3BzVvhqZFTO5cRdmQMtQ-16" value="1.4 executeUpdate(String)" style="html=1;verticalAlign=bottom;endArrow=block;curved=0;rounded=0;fontSize=14;entryX=0;entryY=0;entryDx=0;entryDy=5;entryPerimeter=0;" edge="1" parent="1" source="3BzVvhqZFTO5cRdmQMtQ-4" target="3BzVvhqZFTO5cRdmQMtQ-11">
          <mxGeometry width="80" relative="1" as="geometry">
            <mxPoint x="425" y="450" as="sourcePoint" />
            <mxPoint x="615" y="450" as="targetPoint" />
            <Array as="points" />
          </mxGeometry>
        </mxCell>
      </root>
    </mxGraphModel>
  </diagram>
  <diagram id="IvwYAhF4x1HvN2q7Q-eB" name="Read">
    <mxGraphModel dx="1362" dy="843" grid="1" gridSize="10" guides="1" tooltips="1" connect="1" arrows="1" fold="1" page="1" pageScale="1" pageWidth="850" pageHeight="1100" math="0" shadow="0">
      <root>
        <mxCell id="0" />
        <mxCell id="1" parent="0" />
        <mxCell id="J0WBGPSOVahOPFvo_xfZ-1" value=":PersistencyClient" style="shape=umlLifeline;whiteSpace=wrap;html=1;container=1;dropTarget=0;collapsible=0;recursiveResize=0;outlineConnect=0;portConstraint=eastwest;newEdgeStyle={&quot;curved&quot;:0,&quot;rounded&quot;:0};points=[[0,0,0,0,5],[0,1,0,0,-5],[1,0,0,0,5],[1,1,0,0,-5]];perimeter=rectanglePerimeter;targetShapes=umlLifeline;participant=label;fontSize=14;" vertex="1" parent="1">
          <mxGeometry x="200" y="170" width="120" height="510" as="geometry" />
        </mxCell>
        <mxCell id="J0WBGPSOVahOPFvo_xfZ-2" value="" style="html=1;points=[[0,0,0,0,5],[0,1,0,0,-5],[1,0,0,0,5],[1,1,0,0,-5]];perimeter=orthogonalPerimeter;outlineConnect=0;targetShapes=umlLifeline;portConstraint=eastwest;newEdgeStyle={&quot;curved&quot;:0,&quot;rounded&quot;:0};fontSize=14;" vertex="1" parent="J0WBGPSOVahOPFvo_xfZ-1">
          <mxGeometry x="55" y="70" width="10" height="400" as="geometry" />
        </mxCell>
        <mxCell id="J0WBGPSOVahOPFvo_xfZ-3" value=":DBClass" style="shape=umlLifeline;perimeter=lifelinePerimeter;whiteSpace=wrap;html=1;container=1;dropTarget=0;collapsible=0;recursiveResize=0;outlineConnect=0;portConstraint=eastwest;newEdgeStyle={&quot;curved&quot;:0,&quot;rounded&quot;:0};fontSize=14;" vertex="1" parent="1">
          <mxGeometry x="350" y="170" width="100" height="510" as="geometry" />
        </mxCell>
        <mxCell id="J0WBGPSOVahOPFvo_xfZ-4" value="" style="html=1;points=[[0,0,0,0,5],[0,1,0,0,-5],[1,0,0,0,5],[1,1,0,0,-5]];perimeter=orthogonalPerimeter;outlineConnect=0;targetShapes=umlLifeline;portConstraint=eastwest;newEdgeStyle={&quot;curved&quot;:0,&quot;rounded&quot;:0};fontSize=14;" vertex="1" parent="J0WBGPSOVahOPFvo_xfZ-3">
          <mxGeometry x="45" y="90" width="10" height="380" as="geometry" />
        </mxCell>
        <mxCell id="J0WBGPSOVahOPFvo_xfZ-5" value="1. read(string)" style="html=1;verticalAlign=bottom;endArrow=block;curved=0;rounded=0;fontSize=14;" edge="1" parent="1" source="J0WBGPSOVahOPFvo_xfZ-2" target="J0WBGPSOVahOPFvo_xfZ-4">
          <mxGeometry width="80" relative="1" as="geometry">
            <mxPoint x="265" y="260" as="sourcePoint" />
            <mxPoint x="505" y="260" as="targetPoint" />
            <Array as="points">
              <mxPoint x="350" y="260" />
            </Array>
          </mxGeometry>
        </mxCell>
        <mxCell id="J0WBGPSOVahOPFvo_xfZ-6" value=":Connection" style="shape=umlLifeline;perimeter=lifelinePerimeter;whiteSpace=wrap;html=1;container=1;dropTarget=0;collapsible=0;recursiveResize=0;outlineConnect=0;portConstraint=eastwest;newEdgeStyle={&quot;curved&quot;:0,&quot;rounded&quot;:0};fontSize=14;" vertex="1" parent="1">
          <mxGeometry x="540" y="170" width="100" height="510" as="geometry" />
        </mxCell>
        <mxCell id="J0WBGPSOVahOPFvo_xfZ-7" value="" style="html=1;points=[[0,0,0,0,5],[0,1,0,0,-5],[1,0,0,0,5],[1,1,0,0,-5]];perimeter=orthogonalPerimeter;outlineConnect=0;targetShapes=umlLifeline;portConstraint=eastwest;newEdgeStyle={&quot;curved&quot;:0,&quot;rounded&quot;:0};fontSize=14;" vertex="1" parent="J0WBGPSOVahOPFvo_xfZ-6">
          <mxGeometry x="45" y="110" width="10" height="30" as="geometry" />
        </mxCell>
        <mxCell id="J0WBGPSOVahOPFvo_xfZ-9" value=":Statement" style="shape=umlLifeline;perimeter=lifelinePerimeter;whiteSpace=wrap;html=1;container=1;dropTarget=0;collapsible=0;recursiveResize=0;outlineConnect=0;portConstraint=eastwest;newEdgeStyle={&quot;curved&quot;:0,&quot;rounded&quot;:0};fontSize=14;" vertex="1" parent="1">
          <mxGeometry x="660" y="170" width="100" height="510" as="geometry" />
        </mxCell>
        <mxCell id="J0WBGPSOVahOPFvo_xfZ-8" value="" style="html=1;points=[[0,0,0,0,5],[0,1,0,0,-5],[1,0,0,0,5],[1,1,0,0,-5]];perimeter=orthogonalPerimeter;outlineConnect=0;targetShapes=umlLifeline;portConstraint=eastwest;newEdgeStyle={&quot;curved&quot;:0,&quot;rounded&quot;:0};fontSize=14;" vertex="1" parent="J0WBGPSOVahOPFvo_xfZ-9">
          <mxGeometry x="45" y="170" width="10" height="30" as="geometry" />
        </mxCell>
        <mxCell id="J0WBGPSOVahOPFvo_xfZ-11" value=":Resultset" style="shape=umlLifeline;perimeter=lifelinePerimeter;whiteSpace=wrap;html=1;container=1;dropTarget=0;collapsible=0;recursiveResize=0;outlineConnect=0;portConstraint=eastwest;newEdgeStyle={&quot;curved&quot;:0,&quot;rounded&quot;:0};fontSize=14;" vertex="1" parent="1">
          <mxGeometry x="790" y="170" width="100" height="510" as="geometry" />
        </mxCell>
        <mxCell id="J0WBGPSOVahOPFvo_xfZ-23" value="" style="html=1;points=[[0,0,0,0,5],[0,1,0,0,-5],[1,0,0,0,5],[1,1,0,0,-5]];perimeter=orthogonalPerimeter;outlineConnect=0;targetShapes=umlLifeline;portConstraint=eastwest;newEdgeStyle={&quot;curved&quot;:0,&quot;rounded&quot;:0};fontSize=14;" vertex="1" parent="J0WBGPSOVahOPFvo_xfZ-11">
          <mxGeometry x="45" y="300" width="10" height="30" as="geometry" />
        </mxCell>
        <mxCell id="J0WBGPSOVahOPFvo_xfZ-13" value="1.1 createStatement()" style="html=1;verticalAlign=bottom;endArrow=block;curved=0;rounded=0;fontSize=14;" edge="1" parent="1" target="J0WBGPSOVahOPFvo_xfZ-7">
          <mxGeometry width="80" relative="1" as="geometry">
            <mxPoint x="405" y="280" as="sourcePoint" />
            <mxPoint x="595" y="280" as="targetPoint" />
            <Array as="points" />
          </mxGeometry>
        </mxCell>
        <mxCell id="J0WBGPSOVahOPFvo_xfZ-14" value="1.2 executeQuery(string)" style="html=1;verticalAlign=bottom;endArrow=block;curved=0;rounded=0;fontSize=14;" edge="1" parent="1" target="J0WBGPSOVahOPFvo_xfZ-8">
          <mxGeometry width="80" relative="1" as="geometry">
            <mxPoint x="405" y="340" as="sourcePoint" />
            <mxPoint x="595" y="340" as="targetPoint" />
            <Array as="points" />
          </mxGeometry>
        </mxCell>
        <mxCell id="J0WBGPSOVahOPFvo_xfZ-15" value="1.3 new()" style="html=1;verticalAlign=bottom;endArrow=block;curved=0;rounded=0;fontSize=14;" edge="1" parent="1" target="J0WBGPSOVahOPFvo_xfZ-10">
          <mxGeometry width="80" relative="1" as="geometry">
            <mxPoint x="410" y="390" as="sourcePoint" />
            <mxPoint x="610" y="390" as="targetPoint" />
            <Array as="points" />
          </mxGeometry>
        </mxCell>
        <mxCell id="J0WBGPSOVahOPFvo_xfZ-16" value="1.4 new()" style="html=1;verticalAlign=bottom;endArrow=block;curved=0;rounded=0;fontSize=14;entryX=0;entryY=0;entryDx=0;entryDy=5;entryPerimeter=0;" edge="1" parent="1" source="J0WBGPSOVahOPFvo_xfZ-4" target="J0WBGPSOVahOPFvo_xfZ-12">
          <mxGeometry width="80" relative="1" as="geometry">
            <mxPoint x="425" y="450" as="sourcePoint" />
            <mxPoint x="615" y="450" as="targetPoint" />
            <Array as="points" />
          </mxGeometry>
        </mxCell>
        <mxCell id="J0WBGPSOVahOPFvo_xfZ-17" value=":PersistentClassList" style="shape=umlLifeline;perimeter=lifelinePerimeter;whiteSpace=wrap;html=1;container=1;dropTarget=0;collapsible=0;recursiveResize=0;outlineConnect=0;portConstraint=eastwest;newEdgeStyle={&quot;curved&quot;:0,&quot;rounded&quot;:0};fontSize=14;" vertex="1" parent="1">
          <mxGeometry x="910" y="170" width="130" height="510" as="geometry" />
        </mxCell>
        <mxCell id="J0WBGPSOVahOPFvo_xfZ-10" value="" style="html=1;points=[[0,0,0,0,5],[0,1,0,0,-5],[1,0,0,0,5],[1,1,0,0,-5]];perimeter=orthogonalPerimeter;outlineConnect=0;targetShapes=umlLifeline;portConstraint=eastwest;newEdgeStyle={&quot;curved&quot;:0,&quot;rounded&quot;:0};fontSize=14;" vertex="1" parent="J0WBGPSOVahOPFvo_xfZ-17">
          <mxGeometry x="60" y="210" width="10" height="30" as="geometry" />
        </mxCell>
        <mxCell id="J0WBGPSOVahOPFvo_xfZ-28" value="" style="html=1;points=[[0,0,0,0,5],[0,1,0,0,-5],[1,0,0,0,5],[1,1,0,0,-5]];perimeter=orthogonalPerimeter;outlineConnect=0;targetShapes=umlLifeline;portConstraint=eastwest;newEdgeStyle={&quot;curved&quot;:0,&quot;rounded&quot;:0};fontSize=14;" vertex="1" parent="J0WBGPSOVahOPFvo_xfZ-17">
          <mxGeometry x="60" y="420" width="10" height="30" as="geometry" />
        </mxCell>
        <mxCell id="J0WBGPSOVahOPFvo_xfZ-19" value=":PersistentClass" style="shape=umlLifeline;perimeter=lifelinePerimeter;whiteSpace=wrap;html=1;container=1;dropTarget=0;collapsible=0;recursiveResize=0;outlineConnect=0;portConstraint=eastwest;newEdgeStyle={&quot;curved&quot;:0,&quot;rounded&quot;:0};fontSize=14;" vertex="1" parent="1">
          <mxGeometry x="1070" y="170" width="100" height="510" as="geometry" />
        </mxCell>
        <mxCell id="J0WBGPSOVahOPFvo_xfZ-12" value="" style="html=1;points=[[0,0,0,0,5],[0,1,0,0,-5],[1,0,0,0,5],[1,1,0,0,-5]];perimeter=orthogonalPerimeter;outlineConnect=0;targetShapes=umlLifeline;portConstraint=eastwest;newEdgeStyle={&quot;curved&quot;:0,&quot;rounded&quot;:0};fontSize=14;" vertex="1" parent="J0WBGPSOVahOPFvo_xfZ-19">
          <mxGeometry x="45" y="260" width="10" height="30" as="geometry" />
        </mxCell>
        <mxCell id="J0WBGPSOVahOPFvo_xfZ-24" value="" style="html=1;points=[[0,0,0,0,5],[0,1,0,0,-5],[1,0,0,0,5],[1,1,0,0,-5]];perimeter=orthogonalPerimeter;outlineConnect=0;targetShapes=umlLifeline;portConstraint=eastwest;newEdgeStyle={&quot;curved&quot;:0,&quot;rounded&quot;:0};fontSize=14;" vertex="1" parent="J0WBGPSOVahOPFvo_xfZ-19">
          <mxGeometry x="45" y="350" width="10" height="30" as="geometry" />
        </mxCell>
        <mxCell id="J0WBGPSOVahOPFvo_xfZ-22" value="1.5 getString()" style="html=1;verticalAlign=bottom;endArrow=block;curved=0;rounded=0;fontSize=14;" edge="1" parent="1" source="J0WBGPSOVahOPFvo_xfZ-4" target="J0WBGPSOVahOPFvo_xfZ-23">
          <mxGeometry width="80" relative="1" as="geometry">
            <mxPoint x="415" y="460" as="sourcePoint" />
            <mxPoint x="1155" y="460" as="targetPoint" />
            <Array as="points" />
          </mxGeometry>
        </mxCell>
        <mxCell id="J0WBGPSOVahOPFvo_xfZ-25" value="1.6 setData()" style="html=1;verticalAlign=bottom;endArrow=block;curved=0;rounded=0;fontSize=14;" edge="1" parent="1" target="J0WBGPSOVahOPFvo_xfZ-24" source="J0WBGPSOVahOPFvo_xfZ-4">
          <mxGeometry width="80" relative="1" as="geometry">
            <mxPoint x="415" y="480" as="sourcePoint" />
            <mxPoint x="1165" y="470" as="targetPoint" />
            <Array as="points" />
          </mxGeometry>
        </mxCell>
        <mxCell id="J0WBGPSOVahOPFvo_xfZ-27" value="1.7 add(PersistentClass)" style="html=1;verticalAlign=bottom;endArrow=block;curved=0;rounded=0;fontSize=14;" edge="1" parent="1" source="J0WBGPSOVahOPFvo_xfZ-4" target="J0WBGPSOVahOPFvo_xfZ-28">
          <mxGeometry width="80" relative="1" as="geometry">
            <mxPoint x="420" y="590" as="sourcePoint" />
            <mxPoint x="1165" y="590" as="targetPoint" />
            <Array as="points" />
          </mxGeometry>
        </mxCell>
      </root>
    </mxGraphModel>
  </diagram>
  <diagram id="HhDLNCHaxa4jBK1sMRyY" name="Update">
    <mxGraphModel dx="1362" dy="843" grid="1" gridSize="10" guides="1" tooltips="1" connect="1" arrows="1" fold="1" page="1" pageScale="1" pageWidth="850" pageHeight="1100" math="0" shadow="0">
      <root>
        <mxCell id="0" />
        <mxCell id="1" parent="0" />
        <mxCell id="gvvMavoJ-OPPkOaerzpE-1" value=":PersistencyClient" style="shape=umlLifeline;whiteSpace=wrap;html=1;container=1;dropTarget=0;collapsible=0;recursiveResize=0;outlineConnect=0;portConstraint=eastwest;newEdgeStyle={&quot;curved&quot;:0,&quot;rounded&quot;:0};points=[[0,0,0,0,5],[0,1,0,0,-5],[1,0,0,0,5],[1,1,0,0,-5]];perimeter=rectanglePerimeter;targetShapes=umlLifeline;participant=label;fontSize=14;" vertex="1" parent="1">
          <mxGeometry x="200" y="170" width="120" height="350" as="geometry" />
        </mxCell>
        <mxCell id="gvvMavoJ-OPPkOaerzpE-2" value="" style="html=1;points=[[0,0,0,0,5],[0,1,0,0,-5],[1,0,0,0,5],[1,1,0,0,-5]];perimeter=orthogonalPerimeter;outlineConnect=0;targetShapes=umlLifeline;portConstraint=eastwest;newEdgeStyle={&quot;curved&quot;:0,&quot;rounded&quot;:0};fontSize=14;" vertex="1" parent="gvvMavoJ-OPPkOaerzpE-1">
          <mxGeometry x="55" y="70" width="10" height="240" as="geometry" />
        </mxCell>
        <mxCell id="gvvMavoJ-OPPkOaerzpE-3" value=":DBClass" style="shape=umlLifeline;perimeter=lifelinePerimeter;whiteSpace=wrap;html=1;container=1;dropTarget=0;collapsible=0;recursiveResize=0;outlineConnect=0;portConstraint=eastwest;newEdgeStyle={&quot;curved&quot;:0,&quot;rounded&quot;:0};fontSize=14;" vertex="1" parent="1">
          <mxGeometry x="420" y="170" width="100" height="350" as="geometry" />
        </mxCell>
        <mxCell id="gvvMavoJ-OPPkOaerzpE-4" value="" style="html=1;points=[[0,0,0,0,5],[0,1,0,0,-5],[1,0,0,0,5],[1,1,0,0,-5]];perimeter=orthogonalPerimeter;outlineConnect=0;targetShapes=umlLifeline;portConstraint=eastwest;newEdgeStyle={&quot;curved&quot;:0,&quot;rounded&quot;:0};fontSize=14;" vertex="1" parent="gvvMavoJ-OPPkOaerzpE-3">
          <mxGeometry x="45" y="90" width="10" height="220" as="geometry" />
        </mxCell>
        <mxCell id="gvvMavoJ-OPPkOaerzpE-5" value="1. update(myPersistentClass)" style="html=1;verticalAlign=bottom;endArrow=block;curved=0;rounded=0;fontSize=14;" edge="1" parent="1" source="gvvMavoJ-OPPkOaerzpE-2" target="gvvMavoJ-OPPkOaerzpE-4">
          <mxGeometry width="80" relative="1" as="geometry">
            <mxPoint x="265" y="260" as="sourcePoint" />
            <mxPoint x="505" y="260" as="targetPoint" />
            <Array as="points">
              <mxPoint x="350" y="260" />
            </Array>
          </mxGeometry>
        </mxCell>
        <mxCell id="gvvMavoJ-OPPkOaerzpE-6" value=":Connection" style="shape=umlLifeline;perimeter=lifelinePerimeter;whiteSpace=wrap;html=1;container=1;dropTarget=0;collapsible=0;recursiveResize=0;outlineConnect=0;portConstraint=eastwest;newEdgeStyle={&quot;curved&quot;:0,&quot;rounded&quot;:0};fontSize=14;" vertex="1" parent="1">
          <mxGeometry x="690" y="170" width="100" height="350" as="geometry" />
        </mxCell>
        <mxCell id="gvvMavoJ-OPPkOaerzpE-9" value="" style="html=1;points=[[0,0,0,0,5],[0,1,0,0,-5],[1,0,0,0,5],[1,1,0,0,-5]];perimeter=orthogonalPerimeter;outlineConnect=0;targetShapes=umlLifeline;portConstraint=eastwest;newEdgeStyle={&quot;curved&quot;:0,&quot;rounded&quot;:0};fontSize=14;" vertex="1" parent="gvvMavoJ-OPPkOaerzpE-6">
          <mxGeometry x="45" y="170" width="10" height="30" as="geometry" />
        </mxCell>
        <mxCell id="gvvMavoJ-OPPkOaerzpE-8" value=":Statement" style="shape=umlLifeline;perimeter=lifelinePerimeter;whiteSpace=wrap;html=1;container=1;dropTarget=0;collapsible=0;recursiveResize=0;outlineConnect=0;portConstraint=eastwest;newEdgeStyle={&quot;curved&quot;:0,&quot;rounded&quot;:0};fontSize=14;" vertex="1" parent="1">
          <mxGeometry x="810" y="170" width="100" height="350" as="geometry" />
        </mxCell>
        <mxCell id="gvvMavoJ-OPPkOaerzpE-20" value="" style="html=1;points=[[0,0,0,0,5],[0,1,0,0,-5],[1,0,0,0,5],[1,1,0,0,-5]];perimeter=orthogonalPerimeter;outlineConnect=0;targetShapes=umlLifeline;portConstraint=eastwest;newEdgeStyle={&quot;curved&quot;:0,&quot;rounded&quot;:0};fontSize=14;" vertex="1" parent="gvvMavoJ-OPPkOaerzpE-8">
          <mxGeometry x="45" y="255" width="10" height="30" as="geometry" />
        </mxCell>
        <mxCell id="gvvMavoJ-OPPkOaerzpE-12" value="1.1 getDate()" style="html=1;verticalAlign=bottom;endArrow=block;curved=0;rounded=0;fontSize=14;" edge="1" parent="1" target="gvvMavoJ-OPPkOaerzpE-7">
          <mxGeometry width="80" relative="1" as="geometry">
            <mxPoint x="475" y="280" as="sourcePoint" />
            <mxPoint x="665" y="280" as="targetPoint" />
            <Array as="points" />
          </mxGeometry>
        </mxCell>
        <mxCell id="gvvMavoJ-OPPkOaerzpE-13" value="1.2 createStatement()" style="html=1;verticalAlign=bottom;endArrow=block;curved=0;rounded=0;fontSize=14;" edge="1" parent="1" target="gvvMavoJ-OPPkOaerzpE-9">
          <mxGeometry width="80" relative="1" as="geometry">
            <mxPoint x="475" y="340" as="sourcePoint" />
            <mxPoint x="665" y="340" as="targetPoint" />
            <Array as="points" />
          </mxGeometry>
        </mxCell>
        <mxCell id="gvvMavoJ-OPPkOaerzpE-15" value="1.3 executeUpdate(String)" style="html=1;verticalAlign=bottom;endArrow=block;curved=0;rounded=0;fontSize=14;entryX=0;entryY=0;entryDx=0;entryDy=5;entryPerimeter=0;" edge="1" parent="1" source="gvvMavoJ-OPPkOaerzpE-4" target="gvvMavoJ-OPPkOaerzpE-20">
          <mxGeometry width="80" relative="1" as="geometry">
            <mxPoint x="495" y="450" as="sourcePoint" />
            <mxPoint x="685" y="450" as="targetPoint" />
            <Array as="points" />
          </mxGeometry>
        </mxCell>
        <mxCell id="gvvMavoJ-OPPkOaerzpE-19" value=":PersistentClass" style="shape=umlLifeline;perimeter=lifelinePerimeter;whiteSpace=wrap;html=1;container=1;dropTarget=0;collapsible=0;recursiveResize=0;outlineConnect=0;portConstraint=eastwest;newEdgeStyle={&quot;curved&quot;:0,&quot;rounded&quot;:0};fontSize=14;" vertex="1" parent="1">
          <mxGeometry x="560" y="170" width="100" height="350" as="geometry" />
        </mxCell>
        <mxCell id="gvvMavoJ-OPPkOaerzpE-7" value="" style="html=1;points=[[0,0,0,0,5],[0,1,0,0,-5],[1,0,0,0,5],[1,1,0,0,-5]];perimeter=orthogonalPerimeter;outlineConnect=0;targetShapes=umlLifeline;portConstraint=eastwest;newEdgeStyle={&quot;curved&quot;:0,&quot;rounded&quot;:0};fontSize=14;" vertex="1" parent="gvvMavoJ-OPPkOaerzpE-19">
          <mxGeometry x="45" y="100" width="10" height="30" as="geometry" />
        </mxCell>
      </root>
    </mxGraphModel>
  </diagram>
  <diagram id="mWz4QyA_GM5GSP5AQ4Tk" name="Delete">
    <mxGraphModel dx="1362" dy="843" grid="1" gridSize="10" guides="1" tooltips="1" connect="1" arrows="1" fold="1" page="1" pageScale="1" pageWidth="850" pageHeight="1100" math="0" shadow="0">
      <root>
        <mxCell id="0" />
        <mxCell id="1" parent="0" />
        <mxCell id="qJSRh5p_B04ASrJsdb9e-1" value=":PersistencyClient" style="shape=umlLifeline;whiteSpace=wrap;html=1;container=1;dropTarget=0;collapsible=0;recursiveResize=0;outlineConnect=0;portConstraint=eastwest;newEdgeStyle={&quot;curved&quot;:0,&quot;rounded&quot;:0};points=[[0,0,0,0,5],[0,1,0,0,-5],[1,0,0,0,5],[1,1,0,0,-5]];perimeter=rectanglePerimeter;targetShapes=umlLifeline;participant=label;fontSize=14;" vertex="1" parent="1">
          <mxGeometry x="200" y="170" width="120" height="350" as="geometry" />
        </mxCell>
        <mxCell id="qJSRh5p_B04ASrJsdb9e-2" value="" style="html=1;points=[[0,0,0,0,5],[0,1,0,0,-5],[1,0,0,0,5],[1,1,0,0,-5]];perimeter=orthogonalPerimeter;outlineConnect=0;targetShapes=umlLifeline;portConstraint=eastwest;newEdgeStyle={&quot;curved&quot;:0,&quot;rounded&quot;:0};fontSize=14;" vertex="1" parent="qJSRh5p_B04ASrJsdb9e-1">
          <mxGeometry x="55" y="70" width="10" height="240" as="geometry" />
        </mxCell>
        <mxCell id="qJSRh5p_B04ASrJsdb9e-3" value=":DBClass" style="shape=umlLifeline;perimeter=lifelinePerimeter;whiteSpace=wrap;html=1;container=1;dropTarget=0;collapsible=0;recursiveResize=0;outlineConnect=0;portConstraint=eastwest;newEdgeStyle={&quot;curved&quot;:0,&quot;rounded&quot;:0};fontSize=14;" vertex="1" parent="1">
          <mxGeometry x="420" y="170" width="100" height="350" as="geometry" />
        </mxCell>
        <mxCell id="qJSRh5p_B04ASrJsdb9e-4" value="" style="html=1;points=[[0,0,0,0,5],[0,1,0,0,-5],[1,0,0,0,5],[1,1,0,0,-5]];perimeter=orthogonalPerimeter;outlineConnect=0;targetShapes=umlLifeline;portConstraint=eastwest;newEdgeStyle={&quot;curved&quot;:0,&quot;rounded&quot;:0};fontSize=14;" vertex="1" parent="qJSRh5p_B04ASrJsdb9e-3">
          <mxGeometry x="45" y="90" width="10" height="220" as="geometry" />
        </mxCell>
        <mxCell id="qJSRh5p_B04ASrJsdb9e-5" value="1. delete(myPersistentClass)" style="html=1;verticalAlign=bottom;endArrow=block;curved=0;rounded=0;fontSize=14;" edge="1" parent="1" source="qJSRh5p_B04ASrJsdb9e-2" target="qJSRh5p_B04ASrJsdb9e-4">
          <mxGeometry width="80" relative="1" as="geometry">
            <mxPoint x="265" y="260" as="sourcePoint" />
            <mxPoint x="505" y="260" as="targetPoint" />
            <Array as="points">
              <mxPoint x="350" y="260" />
            </Array>
          </mxGeometry>
        </mxCell>
        <mxCell id="qJSRh5p_B04ASrJsdb9e-6" value=":Connection" style="shape=umlLifeline;perimeter=lifelinePerimeter;whiteSpace=wrap;html=1;container=1;dropTarget=0;collapsible=0;recursiveResize=0;outlineConnect=0;portConstraint=eastwest;newEdgeStyle={&quot;curved&quot;:0,&quot;rounded&quot;:0};fontSize=14;" vertex="1" parent="1">
          <mxGeometry x="550" y="170" width="100" height="350" as="geometry" />
        </mxCell>
        <mxCell id="qJSRh5p_B04ASrJsdb9e-7" value="" style="html=1;points=[[0,0,0,0,5],[0,1,0,0,-5],[1,0,0,0,5],[1,1,0,0,-5]];perimeter=orthogonalPerimeter;outlineConnect=0;targetShapes=umlLifeline;portConstraint=eastwest;newEdgeStyle={&quot;curved&quot;:0,&quot;rounded&quot;:0};fontSize=14;" vertex="1" parent="qJSRh5p_B04ASrJsdb9e-6">
          <mxGeometry x="45" y="170" width="10" height="30" as="geometry" />
        </mxCell>
        <mxCell id="qJSRh5p_B04ASrJsdb9e-8" value=":Statement" style="shape=umlLifeline;perimeter=lifelinePerimeter;whiteSpace=wrap;html=1;container=1;dropTarget=0;collapsible=0;recursiveResize=0;outlineConnect=0;portConstraint=eastwest;newEdgeStyle={&quot;curved&quot;:0,&quot;rounded&quot;:0};fontSize=14;" vertex="1" parent="1">
          <mxGeometry x="670" y="170" width="100" height="350" as="geometry" />
        </mxCell>
        <mxCell id="qJSRh5p_B04ASrJsdb9e-9" value="" style="html=1;points=[[0,0,0,0,5],[0,1,0,0,-5],[1,0,0,0,5],[1,1,0,0,-5]];perimeter=orthogonalPerimeter;outlineConnect=0;targetShapes=umlLifeline;portConstraint=eastwest;newEdgeStyle={&quot;curved&quot;:0,&quot;rounded&quot;:0};fontSize=14;" vertex="1" parent="qJSRh5p_B04ASrJsdb9e-8">
          <mxGeometry x="45" y="255" width="10" height="30" as="geometry" />
        </mxCell>
        <mxCell id="qJSRh5p_B04ASrJsdb9e-11" value="1.1 createStatement()" style="html=1;verticalAlign=bottom;endArrow=block;curved=0;rounded=0;fontSize=14;" edge="1" parent="1" target="qJSRh5p_B04ASrJsdb9e-7">
          <mxGeometry width="80" relative="1" as="geometry">
            <mxPoint x="475" y="340" as="sourcePoint" />
            <mxPoint x="665" y="340" as="targetPoint" />
            <Array as="points" />
          </mxGeometry>
        </mxCell>
        <mxCell id="qJSRh5p_B04ASrJsdb9e-12" value="1.2 executeUpdate(String)" style="html=1;verticalAlign=bottom;endArrow=block;curved=0;rounded=0;fontSize=14;entryX=0;entryY=0;entryDx=0;entryDy=5;entryPerimeter=0;" edge="1" parent="1" source="qJSRh5p_B04ASrJsdb9e-4" target="qJSRh5p_B04ASrJsdb9e-9">
          <mxGeometry width="80" relative="1" as="geometry">
            <mxPoint x="495" y="450" as="sourcePoint" />
            <mxPoint x="685" y="450" as="targetPoint" />
            <Array as="points" />
          </mxGeometry>
        </mxCell>
      </root>
    </mxGraphModel>
  </diagram>
  <diagram id="I8r60tP6FMwla7XWDqQ3" name="Distribution">
    <mxGraphModel dx="2212" dy="1943" grid="1" gridSize="10" guides="1" tooltips="1" connect="1" arrows="1" fold="1" page="1" pageScale="1" pageWidth="850" pageHeight="1100" math="0" shadow="0">
      <root>
        <mxCell id="0" />
        <mxCell id="1" parent="0" />
        <mxCell id="a_vbJ974kr3QcUnf4rnL-2" value="&lt;p style=&quot;margin:0px;margin-top:4px;text-align:center;&quot;&gt;&lt;b&gt;Remote&lt;/b&gt;&lt;/p&gt;&lt;hr style=&quot;border-style:solid;&quot;&gt;&lt;p style=&quot;margin:0px;margin-left:4px;&quot;&gt;&lt;br&gt;&lt;/p&gt;&lt;hr style=&quot;border-style:solid;&quot;&gt;&lt;p style=&quot;margin:0px;margin-left:4px;&quot;&gt;&lt;br&gt;&lt;/p&gt;" style="verticalAlign=top;align=left;overflow=fill;html=1;whiteSpace=wrap;fontSize=14;" vertex="1" parent="1">
          <mxGeometry x="-28.75" y="-150" width="202.5" height="100" as="geometry" />
        </mxCell>
        <mxCell id="a_vbJ974kr3QcUnf4rnL-24" style="edgeStyle=orthogonalEdgeStyle;rounded=0;orthogonalLoop=1;jettySize=auto;html=1;endArrow=open;endFill=0;endSize=16;fontSize=14;" edge="1" parent="1" source="a_vbJ974kr3QcUnf4rnL-3" target="a_vbJ974kr3QcUnf4rnL-23">
          <mxGeometry relative="1" as="geometry" />
        </mxCell>
        <mxCell id="a_vbJ974kr3QcUnf4rnL-3" value="&lt;p style=&quot;margin:0px;margin-top:4px;text-align:center;&quot;&gt;&lt;b&gt;RemoteObject_Stub&lt;/b&gt;&lt;/p&gt;&lt;hr style=&quot;border-style:solid;&quot;&gt;&lt;p style=&quot;margin:0px;margin-left:4px;&quot;&gt;-RemoteObject_Skeleton: remoteObject_Skeleton&lt;/p&gt;&lt;hr style=&quot;border-style:solid;&quot;&gt;&lt;p style=&quot;margin:0px;margin-left:4px;&quot;&gt;&lt;br&gt;&lt;/p&gt;" style="verticalAlign=top;align=left;overflow=fill;html=1;whiteSpace=wrap;fontSize=14;" vertex="1" parent="1">
          <mxGeometry x="-92.5" y="200" width="330" height="100" as="geometry" />
        </mxCell>
        <mxCell id="a_vbJ974kr3QcUnf4rnL-21" style="rounded=0;orthogonalLoop=1;jettySize=auto;html=1;endArrow=block;endFill=0;endSize=16;fontSize=14;" edge="1" parent="1" source="a_vbJ974kr3QcUnf4rnL-20" target="a_vbJ974kr3QcUnf4rnL-2">
          <mxGeometry relative="1" as="geometry" />
        </mxCell>
        <mxCell id="a_vbJ974kr3QcUnf4rnL-20" value="&lt;p style=&quot;margin:0px;margin-top:4px;text-align:center;&quot;&gt;&lt;b&gt;IRemoteObject&lt;/b&gt;&lt;/p&gt;&lt;hr style=&quot;border-style:solid;&quot;&gt;&lt;p style=&quot;margin:0px;margin-left:4px;&quot;&gt;&lt;br&gt;&lt;/p&gt;&lt;hr style=&quot;border-style:solid;&quot;&gt;&lt;p style=&quot;margin:0px;margin-left:4px;&quot;&gt;&lt;br&gt;&lt;/p&gt;" style="verticalAlign=top;align=left;overflow=fill;html=1;whiteSpace=wrap;fontSize=14;" vertex="1" parent="1">
          <mxGeometry x="-28.75" width="202.5" height="100" as="geometry" />
        </mxCell>
        <mxCell id="a_vbJ974kr3QcUnf4rnL-22" style="rounded=0;orthogonalLoop=1;jettySize=auto;html=1;endArrow=block;endFill=0;endSize=16;dashed=1;dashPattern=8 8;fontSize=14;" edge="1" parent="1" source="a_vbJ974kr3QcUnf4rnL-3" target="a_vbJ974kr3QcUnf4rnL-20">
          <mxGeometry relative="1" as="geometry">
            <mxPoint x="83" y="10" as="sourcePoint" />
            <mxPoint x="83" y="-40" as="targetPoint" />
          </mxGeometry>
        </mxCell>
        <mxCell id="a_vbJ974kr3QcUnf4rnL-23" value="&lt;p style=&quot;margin:0px;margin-top:4px;text-align:center;&quot;&gt;&lt;b&gt;RemoteObject_Skeleton&lt;/b&gt;&lt;/p&gt;&lt;hr style=&quot;border-style:solid;&quot;&gt;&lt;p style=&quot;margin:0px;margin-left:4px;&quot;&gt;-RemoteObject: remoteObject&lt;/p&gt;&lt;hr style=&quot;border-style:solid;&quot;&gt;&lt;p style=&quot;margin:0px;margin-left:4px;&quot;&gt;&lt;br&gt;&lt;/p&gt;" style="verticalAlign=top;align=left;overflow=fill;html=1;whiteSpace=wrap;fontSize=14;" vertex="1" parent="1">
          <mxGeometry x="355" y="200" width="230" height="100" as="geometry" />
        </mxCell>
        <mxCell id="a_vbJ974kr3QcUnf4rnL-25" value="1" style="text;html=1;align=center;verticalAlign=middle;resizable=0;points=[];autosize=1;strokeColor=none;fillColor=none;fontSize=14;" vertex="1" parent="1">
          <mxGeometry x="230" y="220" width="30" height="30" as="geometry" />
        </mxCell>
        <mxCell id="a_vbJ974kr3QcUnf4rnL-26" value="1" style="text;html=1;align=center;verticalAlign=middle;resizable=0;points=[];autosize=1;strokeColor=none;fillColor=none;fontSize=14;" vertex="1" parent="1">
          <mxGeometry x="320" y="218" width="30" height="30" as="geometry" />
        </mxCell>
        <mxCell id="TRFoxyRZXQWXKS-_3F6C-1" value="&lt;p style=&quot;margin:0px;margin-top:4px;text-align:center;&quot;&gt;&lt;b&gt;RemoteObject&lt;/b&gt;&lt;/p&gt;&lt;hr style=&quot;border-style:solid;&quot;&gt;&lt;p style=&quot;margin:0px;margin-left:4px;&quot;&gt;&lt;br&gt;&lt;/p&gt;&lt;hr style=&quot;border-style:solid;&quot;&gt;&lt;p style=&quot;margin:0px;margin-left:4px;&quot;&gt;&lt;br&gt;&lt;/p&gt;" style="verticalAlign=top;align=left;overflow=fill;html=1;whiteSpace=wrap;fontSize=14;" vertex="1" parent="1">
          <mxGeometry x="370" y="38" width="200" height="100" as="geometry" />
        </mxCell>
        <mxCell id="TRFoxyRZXQWXKS-_3F6C-4" value="&lt;p style=&quot;margin:0px;margin-top:4px;text-align:center;&quot;&gt;&lt;b&gt;UnicasRemoteObject&lt;/b&gt;&lt;/p&gt;&lt;hr style=&quot;border-style:solid;&quot;&gt;&lt;p style=&quot;margin:0px;margin-left:4px;&quot;&gt;&lt;br&gt;&lt;/p&gt;&lt;hr style=&quot;border-style:solid;&quot;&gt;&lt;p style=&quot;margin:0px;margin-left:4px;&quot;&gt;&lt;br&gt;&lt;/p&gt;" style="verticalAlign=top;align=left;overflow=fill;html=1;whiteSpace=wrap;fontSize=14;" vertex="1" parent="1">
          <mxGeometry x="360" y="-150" width="220" height="100" as="geometry" />
        </mxCell>
        <mxCell id="TRFoxyRZXQWXKS-_3F6C-5" style="rounded=0;orthogonalLoop=1;jettySize=auto;html=1;endArrow=block;endFill=0;endSize=16;fontSize=14;" edge="1" parent="1" source="TRFoxyRZXQWXKS-_3F6C-1" target="TRFoxyRZXQWXKS-_3F6C-4">
          <mxGeometry relative="1" as="geometry">
            <mxPoint x="528" y="210" as="sourcePoint" />
            <mxPoint x="527" y="150" as="targetPoint" />
          </mxGeometry>
        </mxCell>
        <mxCell id="TRFoxyRZXQWXKS-_3F6C-6" value="&lt;p style=&quot;margin:0px;margin-top:4px;text-align:center;&quot;&gt;&lt;b&gt;Client&lt;/b&gt;&lt;/p&gt;&lt;hr style=&quot;border-style:solid;&quot;&gt;&lt;p style=&quot;margin:0px;margin-left:4px;&quot;&gt;&lt;br&gt;&lt;/p&gt;&lt;hr style=&quot;border-style:solid;&quot;&gt;&lt;p style=&quot;margin:0px;margin-left:4px;&quot;&gt;&lt;br&gt;&lt;/p&gt;" style="verticalAlign=top;align=left;overflow=fill;html=1;whiteSpace=wrap;fontSize=14;" vertex="1" parent="1">
          <mxGeometry x="-380" width="210" height="100" as="geometry" />
        </mxCell>
        <mxCell id="TRFoxyRZXQWXKS-_3F6C-7" style="edgeStyle=orthogonalEdgeStyle;rounded=0;orthogonalLoop=1;jettySize=auto;html=1;endArrow=open;endFill=0;endSize=16;fontSize=14;" edge="1" parent="1" source="TRFoxyRZXQWXKS-_3F6C-6" target="a_vbJ974kr3QcUnf4rnL-20">
          <mxGeometry relative="1" as="geometry">
            <mxPoint x="248" y="260" as="sourcePoint" />
            <mxPoint x="410" y="260" as="targetPoint" />
          </mxGeometry>
        </mxCell>
        <mxCell id="TRFoxyRZXQWXKS-_3F6C-9" value="1" style="text;html=1;align=center;verticalAlign=middle;resizable=0;points=[];autosize=1;strokeColor=none;fillColor=none;fontSize=14;" vertex="1" parent="1">
          <mxGeometry x="-175" y="18" width="30" height="30" as="geometry" />
        </mxCell>
        <mxCell id="TRFoxyRZXQWXKS-_3F6C-10" value="1" style="text;html=1;align=center;verticalAlign=middle;resizable=0;points=[];autosize=1;strokeColor=none;fillColor=none;fontSize=14;" vertex="1" parent="1">
          <mxGeometry x="-55" y="18" width="30" height="30" as="geometry" />
        </mxCell>
        <mxCell id="TRFoxyRZXQWXKS-_3F6C-11" style="rounded=0;orthogonalLoop=1;jettySize=auto;html=1;endArrow=open;endFill=0;endSize=16;fontSize=14;" edge="1" parent="1" source="a_vbJ974kr3QcUnf4rnL-23" target="TRFoxyRZXQWXKS-_3F6C-1">
          <mxGeometry relative="1" as="geometry">
            <mxPoint x="475" y="260" as="sourcePoint" />
            <mxPoint x="365" y="260" as="targetPoint" />
          </mxGeometry>
        </mxCell>
        <mxCell id="TRFoxyRZXQWXKS-_3F6C-12" value="1" style="text;html=1;align=center;verticalAlign=middle;resizable=0;points=[];autosize=1;strokeColor=none;fillColor=none;fontSize=14;" vertex="1" parent="1">
          <mxGeometry x="470" y="178" width="30" height="30" as="geometry" />
        </mxCell>
        <mxCell id="TRFoxyRZXQWXKS-_3F6C-13" value="1" style="text;html=1;align=center;verticalAlign=middle;resizable=0;points=[];autosize=1;strokeColor=none;fillColor=none;fontSize=14;" vertex="1" parent="1">
          <mxGeometry x="440" y="138" width="30" height="30" as="geometry" />
        </mxCell>
        <mxCell id="rfdXwUXzmt5sFw8roDKq-2" style="rounded=0;orthogonalLoop=1;jettySize=auto;html=1;dashed=1;endArrow=none;startFill=0;fontSize=14;" edge="1" parent="1" source="rfdXwUXzmt5sFw8roDKq-1" target="TRFoxyRZXQWXKS-_3F6C-6">
          <mxGeometry relative="1" as="geometry" />
        </mxCell>
        <mxCell id="rfdXwUXzmt5sFw8roDKq-1" value="The remote object appears &quot;local&quot; to the client." style="shape=note;size=20;whiteSpace=wrap;html=1;fontSize=14;" vertex="1" parent="1">
          <mxGeometry x="-340" y="-120" width="120" height="80" as="geometry" />
        </mxCell>
        <mxCell id="rfdXwUXzmt5sFw8roDKq-5" value="Indicate that the object is remote." style="shape=note;size=20;whiteSpace=wrap;html=1;fontSize=14;" vertex="1" parent="1">
          <mxGeometry x="53.75" y="-260" width="120" height="70" as="geometry" />
        </mxCell>
        <mxCell id="rfdXwUXzmt5sFw8roDKq-6" style="rounded=0;orthogonalLoop=1;jettySize=auto;html=1;dashed=1;endArrow=none;startFill=0;fontSize=14;" edge="1" parent="1" source="a_vbJ974kr3QcUnf4rnL-2" target="rfdXwUXzmt5sFw8roDKq-5">
          <mxGeometry relative="1" as="geometry">
            <mxPoint x="-268" y="-30" as="sourcePoint" />
            <mxPoint x="-267" y="10" as="targetPoint" />
          </mxGeometry>
        </mxCell>
        <mxCell id="rfdXwUXzmt5sFw8roDKq-7" value="The client deals with an interface, not the remote object directly." style="shape=note;size=20;whiteSpace=wrap;html=1;fontSize=14;" vertex="1" parent="1">
          <mxGeometry x="210" y="-50" width="120" height="70" as="geometry" />
        </mxCell>
        <mxCell id="rfdXwUXzmt5sFw8roDKq-9" style="rounded=0;orthogonalLoop=1;jettySize=auto;html=1;dashed=1;endArrow=none;startFill=0;fontSize=14;" edge="1" parent="1" source="a_vbJ974kr3QcUnf4rnL-20" target="rfdXwUXzmt5sFw8roDKq-7">
          <mxGeometry relative="1" as="geometry">
            <mxPoint x="106" y="-140" as="sourcePoint" />
            <mxPoint x="144" y="-220" as="targetPoint" />
          </mxGeometry>
        </mxCell>
        <mxCell id="rfdXwUXzmt5sFw8roDKq-10" value="On the client side. The stub is transmitted to the client when the client asks the server&#39;s RMIRegistry for the object bound to a specific name" style="shape=note;size=20;whiteSpace=wrap;html=1;fontSize=14;" vertex="1" parent="1">
          <mxGeometry x="-60" y="330" width="225" height="100" as="geometry" />
        </mxCell>
        <mxCell id="rfdXwUXzmt5sFw8roDKq-11" style="rounded=0;orthogonalLoop=1;jettySize=auto;html=1;dashed=1;endArrow=none;startFill=0;fontSize=14;" edge="1" parent="1" source="a_vbJ974kr3QcUnf4rnL-3" target="rfdXwUXzmt5sFw8roDKq-10">
          <mxGeometry relative="1" as="geometry">
            <mxPoint x="184" y="27" as="sourcePoint" />
            <mxPoint x="220" y="15" as="targetPoint" />
          </mxGeometry>
        </mxCell>
        <mxCell id="rfdXwUXzmt5sFw8roDKq-12" value="On the server side. The stub communicates with the skeleton, not with the remote object directly" style="shape=note;size=20;whiteSpace=wrap;html=1;fontSize=14;" vertex="1" parent="1">
          <mxGeometry x="370" y="340" width="220" height="80" as="geometry" />
        </mxCell>
        <mxCell id="rfdXwUXzmt5sFw8roDKq-13" style="rounded=0;orthogonalLoop=1;jettySize=auto;html=1;dashed=1;endArrow=none;startFill=0;fontSize=14;" edge="1" parent="1" source="a_vbJ974kr3QcUnf4rnL-23" target="rfdXwUXzmt5sFw8roDKq-12">
          <mxGeometry relative="1" as="geometry">
            <mxPoint x="65" y="310" as="sourcePoint" />
            <mxPoint x="48" y="360" as="targetPoint" />
          </mxGeometry>
        </mxCell>
        <mxCell id="rfdXwUXzmt5sFw8roDKq-14" value="Contains the code necessary to create stubs and skeletons" style="shape=note;size=20;whiteSpace=wrap;html=1;fontSize=14;" vertex="1" parent="1">
          <mxGeometry x="355" y="-250" width="175" height="70" as="geometry" />
        </mxCell>
        <mxCell id="rfdXwUXzmt5sFw8roDKq-15" style="rounded=0;orthogonalLoop=1;jettySize=auto;html=1;dashed=1;endArrow=none;startFill=0;fontSize=14;" edge="1" parent="1" source="TRFoxyRZXQWXKS-_3F6C-4" target="rfdXwUXzmt5sFw8roDKq-14">
          <mxGeometry relative="1" as="geometry">
            <mxPoint x="106" y="-140" as="sourcePoint" />
            <mxPoint x="144" y="-220" as="targetPoint" />
          </mxGeometry>
        </mxCell>
      </root>
    </mxGraphModel>
  </diagram>
  <diagram id="OxLbRJSW9KHq-WiQMqR0" name="Page-8">
    <mxGraphModel dx="1362" dy="843" grid="1" gridSize="10" guides="1" tooltips="1" connect="1" arrows="1" fold="1" page="1" pageScale="1" pageWidth="850" pageHeight="1100" math="0" shadow="0">
      <root>
        <mxCell id="0" />
        <mxCell id="1" parent="0" />
        <mxCell id="3Pjx345xrtsZfdx7X4Nh-1" value=":Client" style="shape=umlLifeline;whiteSpace=wrap;html=1;container=1;dropTarget=0;collapsible=0;recursiveResize=0;outlineConnect=0;portConstraint=eastwest;newEdgeStyle={&quot;curved&quot;:0,&quot;rounded&quot;:0};points=[[0,0,0,0,5],[0,1,0,0,-5],[1,0,0,0,5],[1,1,0,0,-5]];perimeter=rectanglePerimeter;targetShapes=umlLifeline;participant=label;fontSize=14;" vertex="1" parent="1">
          <mxGeometry x="220" y="170" width="100" height="350" as="geometry" />
        </mxCell>
        <mxCell id="3Pjx345xrtsZfdx7X4Nh-2" value="" style="html=1;points=[[0,0,0,0,5],[0,1,0,0,-5],[1,0,0,0,5],[1,1,0,0,-5]];perimeter=orthogonalPerimeter;outlineConnect=0;targetShapes=umlLifeline;portConstraint=eastwest;newEdgeStyle={&quot;curved&quot;:0,&quot;rounded&quot;:0};fontSize=14;" vertex="1" parent="3Pjx345xrtsZfdx7X4Nh-1">
          <mxGeometry x="45" y="70" width="10" height="260" as="geometry" />
        </mxCell>
        <mxCell id="3Pjx345xrtsZfdx7X4Nh-3" value=":IRemoteObject" style="shape=umlLifeline;perimeter=lifelinePerimeter;whiteSpace=wrap;html=1;container=1;dropTarget=0;collapsible=0;recursiveResize=0;outlineConnect=0;portConstraint=eastwest;newEdgeStyle={&quot;curved&quot;:0,&quot;rounded&quot;:0};fontSize=14;" vertex="1" parent="1">
          <mxGeometry x="360" y="170" width="100" height="350" as="geometry" />
        </mxCell>
        <mxCell id="3Pjx345xrtsZfdx7X4Nh-4" value="" style="html=1;points=[[0,0,0,0,5],[0,1,0,0,-5],[1,0,0,0,5],[1,1,0,0,-5]];perimeter=orthogonalPerimeter;outlineConnect=0;targetShapes=umlLifeline;portConstraint=eastwest;newEdgeStyle={&quot;curved&quot;:0,&quot;rounded&quot;:0};fontSize=14;" vertex="1" parent="3Pjx345xrtsZfdx7X4Nh-3">
          <mxGeometry x="45" y="90" width="10" height="60" as="geometry" />
        </mxCell>
        <mxCell id="3Pjx345xrtsZfdx7X4Nh-5" value="lookup()" style="html=1;verticalAlign=bottom;endArrow=block;curved=0;rounded=0;fontSize=14;" edge="1" parent="1" source="3Pjx345xrtsZfdx7X4Nh-2" target="3Pjx345xrtsZfdx7X4Nh-4">
          <mxGeometry width="80" relative="1" as="geometry">
            <mxPoint x="265" y="260" as="sourcePoint" />
            <mxPoint x="505" y="260" as="targetPoint" />
            <Array as="points">
              <mxPoint x="350" y="260" />
            </Array>
          </mxGeometry>
        </mxCell>
        <mxCell id="3Pjx345xrtsZfdx7X4Nh-13" value=":RemoteObject_Stub" style="shape=umlLifeline;perimeter=lifelinePerimeter;whiteSpace=wrap;html=1;container=1;dropTarget=0;collapsible=0;recursiveResize=0;outlineConnect=0;portConstraint=eastwest;newEdgeStyle={&quot;curved&quot;:0,&quot;rounded&quot;:0};fontSize=14;" vertex="1" parent="1">
          <mxGeometry x="480" y="170" width="140" height="350" as="geometry" />
        </mxCell>
        <mxCell id="mlYh0nC8yN28mk6Mahzg-1" value="" style="html=1;points=[[0,0,0,0,5],[0,1,0,0,-5],[1,0,0,0,5],[1,1,0,0,-5]];perimeter=orthogonalPerimeter;outlineConnect=0;targetShapes=umlLifeline;portConstraint=eastwest;newEdgeStyle={&quot;curved&quot;:0,&quot;rounded&quot;:0};fontSize=14;" vertex="1" parent="3Pjx345xrtsZfdx7X4Nh-13">
          <mxGeometry x="65" y="170" width="10" height="150" as="geometry" />
        </mxCell>
        <mxCell id="4YIYr3vNoQbxzqmEAu-A-1" value="return stub" style="html=1;verticalAlign=bottom;endArrow=open;dashed=1;endSize=8;curved=0;rounded=0;fontSize=14;" edge="1" parent="1" source="3Pjx345xrtsZfdx7X4Nh-4" target="3Pjx345xrtsZfdx7X4Nh-2">
          <mxGeometry relative="1" as="geometry">
            <mxPoint x="400" y="440" as="sourcePoint" />
            <mxPoint x="360" y="360" as="targetPoint" />
            <Array as="points">
              <mxPoint x="370" y="300" />
            </Array>
          </mxGeometry>
        </mxCell>
        <mxCell id="mlYh0nC8yN28mk6Mahzg-2" value="doSomething()" style="html=1;verticalAlign=bottom;endArrow=block;curved=0;rounded=0;fontSize=14;" edge="1" parent="1" source="3Pjx345xrtsZfdx7X4Nh-2" target="mlYh0nC8yN28mk6Mahzg-1">
          <mxGeometry width="80" relative="1" as="geometry">
            <mxPoint x="285" y="344.5" as="sourcePoint" />
            <mxPoint x="475" y="344.5" as="targetPoint" />
            <Array as="points">
              <mxPoint x="360" y="344.5" />
            </Array>
          </mxGeometry>
        </mxCell>
        <mxCell id="mlYh0nC8yN28mk6Mahzg-3" value=":RemoteObject_Skeleton" style="shape=umlLifeline;perimeter=lifelinePerimeter;whiteSpace=wrap;html=1;container=1;dropTarget=0;collapsible=0;recursiveResize=0;outlineConnect=0;portConstraint=eastwest;newEdgeStyle={&quot;curved&quot;:0,&quot;rounded&quot;:0};fontSize=14;" vertex="1" parent="1">
          <mxGeometry x="650" y="170" width="160" height="350" as="geometry" />
        </mxCell>
        <mxCell id="mlYh0nC8yN28mk6Mahzg-4" value="" style="html=1;points=[[0,0,0,0,5],[0,1,0,0,-5],[1,0,0,0,5],[1,1,0,0,-5]];perimeter=orthogonalPerimeter;outlineConnect=0;targetShapes=umlLifeline;portConstraint=eastwest;newEdgeStyle={&quot;curved&quot;:0,&quot;rounded&quot;:0};fontSize=14;" vertex="1" parent="mlYh0nC8yN28mk6Mahzg-3">
          <mxGeometry x="75" y="190" width="10" height="110" as="geometry" />
        </mxCell>
        <mxCell id="mlYh0nC8yN28mk6Mahzg-5" value="doSomething()" style="html=1;verticalAlign=bottom;endArrow=block;curved=0;rounded=0;fontSize=14;" edge="1" parent="1">
          <mxGeometry width="80" relative="1" as="geometry">
            <mxPoint x="555" y="360" as="sourcePoint" />
            <mxPoint x="725" y="360" as="targetPoint" />
            <Array as="points">
              <mxPoint x="645" y="360" />
            </Array>
          </mxGeometry>
        </mxCell>
        <mxCell id="mlYh0nC8yN28mk6Mahzg-6" value=":RemoteObject" style="shape=umlLifeline;perimeter=lifelinePerimeter;whiteSpace=wrap;html=1;container=1;dropTarget=0;collapsible=0;recursiveResize=0;outlineConnect=0;portConstraint=eastwest;newEdgeStyle={&quot;curved&quot;:0,&quot;rounded&quot;:0};fontSize=14;" vertex="1" parent="1">
          <mxGeometry x="840" y="170" width="130" height="350" as="geometry" />
        </mxCell>
        <mxCell id="mlYh0nC8yN28mk6Mahzg-7" value="" style="html=1;points=[[0,0,0,0,5],[0,1,0,0,-5],[1,0,0,0,5],[1,1,0,0,-5]];perimeter=orthogonalPerimeter;outlineConnect=0;targetShapes=umlLifeline;portConstraint=eastwest;newEdgeStyle={&quot;curved&quot;:0,&quot;rounded&quot;:0};fontSize=14;" vertex="1" parent="mlYh0nC8yN28mk6Mahzg-6">
          <mxGeometry x="60" y="220" width="10" height="60" as="geometry" />
        </mxCell>
        <mxCell id="mlYh0nC8yN28mk6Mahzg-8" value="doSomething()" style="html=1;verticalAlign=bottom;endArrow=block;curved=0;rounded=0;fontSize=14;" edge="1" parent="1" source="mlYh0nC8yN28mk6Mahzg-4" target="mlYh0nC8yN28mk6Mahzg-7">
          <mxGeometry width="80" relative="1" as="geometry">
            <mxPoint x="720" y="390" as="sourcePoint" />
            <mxPoint x="890" y="390" as="targetPoint" />
            <Array as="points">
              <mxPoint x="810" y="390" />
            </Array>
          </mxGeometry>
        </mxCell>
        <mxCell id="mlYh0nC8yN28mk6Mahzg-9" value="return result" style="html=1;verticalAlign=bottom;endArrow=open;dashed=1;endSize=8;curved=0;rounded=0;fontSize=14;" edge="1" parent="1" source="mlYh0nC8yN28mk6Mahzg-7" target="mlYh0nC8yN28mk6Mahzg-4">
          <mxGeometry relative="1" as="geometry">
            <mxPoint x="870" y="450" as="sourcePoint" />
            <mxPoint x="680" y="450" as="targetPoint" />
            <Array as="points">
              <mxPoint x="775" y="450" />
            </Array>
          </mxGeometry>
        </mxCell>
        <mxCell id="mlYh0nC8yN28mk6Mahzg-10" value="return result" style="html=1;verticalAlign=bottom;endArrow=open;dashed=1;endSize=8;curved=0;rounded=0;fontSize=14;" edge="1" parent="1" source="mlYh0nC8yN28mk6Mahzg-4" target="mlYh0nC8yN28mk6Mahzg-1">
          <mxGeometry relative="1" as="geometry">
            <mxPoint x="715" y="470" as="sourcePoint" />
            <mxPoint x="550" y="470" as="targetPoint" />
            <Array as="points">
              <mxPoint x="590" y="470" />
            </Array>
          </mxGeometry>
        </mxCell>
        <mxCell id="mlYh0nC8yN28mk6Mahzg-11" value="return result" style="html=1;verticalAlign=bottom;endArrow=open;dashed=1;endSize=8;curved=0;rounded=0;fontSize=14;" edge="1" parent="1" source="mlYh0nC8yN28mk6Mahzg-1" target="3Pjx345xrtsZfdx7X4Nh-2">
          <mxGeometry relative="1" as="geometry">
            <mxPoint x="640" y="495" as="sourcePoint" />
            <mxPoint x="280" y="490" as="targetPoint" />
            <Array as="points">
              <mxPoint x="465" y="490" />
            </Array>
          </mxGeometry>
        </mxCell>
      </root>
    </mxGraphModel>
  </diagram>
  <diagram id="WOw6IVCTRZ_n-orBMzSM" name="Sercurity">
    <mxGraphModel dx="2452" dy="2092" grid="1" gridSize="10" guides="1" tooltips="1" connect="1" arrows="1" fold="1" page="1" pageScale="1" pageWidth="850" pageHeight="1100" math="0" shadow="0">
      <root>
        <mxCell id="0" />
        <mxCell id="1" parent="0" />
        <mxCell id="eYTSgF5FzGqh6qIzUx-t-1" style="rounded=0;orthogonalLoop=1;jettySize=auto;html=1;endSize=16;endArrow=open;endFill=0;fontSize=14;" edge="1" parent="1" source="eYTSgF5FzGqh6qIzUx-t-2" target="eYTSgF5FzGqh6qIzUx-t-3">
          <mxGeometry relative="1" as="geometry" />
        </mxCell>
        <mxCell id="eYTSgF5FzGqh6qIzUx-t-2" value="&lt;p style=&quot;margin:0px;margin-top:4px;text-align:center;&quot;&gt;&lt;b&gt;&amp;lt;&amp;lt;interface&amp;gt;&amp;gt;&lt;/b&gt;&lt;/p&gt;&lt;p style=&quot;margin:0px;margin-top:4px;text-align:center;&quot;&gt;&lt;b&gt;IUserSubsystem&lt;/b&gt;&lt;/p&gt;&lt;hr style=&quot;border-style:solid;&quot;&gt;&lt;p style=&quot;margin:0px;margin-left:4px;&quot;&gt;&lt;br&gt;&lt;/p&gt;&lt;hr style=&quot;border-style:solid;&quot;&gt;&lt;p style=&quot;margin:0px;margin-left:4px;&quot;&gt;+checkLoginInfo(username: String, password: String): boolean&lt;/p&gt;&lt;p style=&quot;margin:0px;margin-left:4px;&quot;&gt;+setupSercurityContext()&lt;/p&gt;&lt;p style=&quot;margin:0px;margin-left:4px;&quot;&gt;+getUserContext(): ISecureUser&lt;/p&gt;" style="verticalAlign=top;align=left;overflow=fill;html=1;whiteSpace=wrap;fontSize=14;" vertex="1" parent="1">
          <mxGeometry x="-70" y="-40" width="410" height="160" as="geometry" />
        </mxCell>
        <mxCell id="eYTSgF5FzGqh6qIzUx-t-3" value="&lt;p style=&quot;margin:0px;margin-top:4px;text-align:center;&quot;&gt;&lt;b&gt;&amp;lt;&amp;lt;interface&amp;gt;&amp;gt;&lt;/b&gt;&lt;/p&gt;&lt;p style=&quot;margin:0px;margin-top:4px;text-align:center;&quot;&gt;&lt;b&gt;ISecureUser&lt;/b&gt;&lt;/p&gt;&lt;p style=&quot;margin:0px;margin-top:4px;text-align:center;&quot;&gt;&lt;b&gt;(from Secure Interfaces)&lt;/b&gt;&lt;/p&gt;&lt;hr style=&quot;border-style:solid;&quot;&gt;&lt;p style=&quot;margin:0px;margin-left:4px;&quot;&gt;&lt;br&gt;&lt;/p&gt;&lt;hr style=&quot;border-style:solid;&quot;&gt;&lt;p style=&quot;margin:0px;margin-left:4px;&quot;&gt;+setAccess(toData: ISecureData, access: SercurityAccess)&lt;/p&gt;&lt;p style=&quot;margin:0px;margin-left:4px;&quot;&gt;+getAccess(toData: ISecureData): SecurityAccess&lt;/p&gt;&lt;p style=&quot;margin:0px;margin-left:4px;&quot;&gt;+getUserId(): UniqueId&lt;/p&gt;&lt;p style=&quot;margin:0px;margin-left:4px;&quot;&gt;+new(forUser: UserId)&lt;/p&gt;" style="verticalAlign=top;align=left;overflow=fill;html=1;whiteSpace=wrap;fontSize=14;" vertex="1" parent="1">
          <mxGeometry x="-80" y="260" width="305" height="220" as="geometry" />
        </mxCell>
        <mxCell id="eYTSgF5FzGqh6qIzUx-t-5" value="&lt;p style=&quot;margin:0px;margin-top:4px;text-align:center;&quot;&gt;&lt;b&gt;UserController&lt;/b&gt;&lt;/p&gt;&lt;hr style=&quot;border-style:solid;&quot;&gt;&lt;p style=&quot;margin:0px;margin-left:4px;&quot;&gt;&lt;br&gt;&lt;/p&gt;&lt;hr style=&quot;border-style:solid;&quot;&gt;&lt;p style=&quot;margin:0px;margin-left:4px;&quot;&gt;+checkLoginInfo(username: String, password: String): boolean&lt;/p&gt;&lt;p style=&quot;margin:0px;margin-left:4px;&quot;&gt;+setupSecurityContext()&lt;/p&gt;&lt;p style=&quot;margin:0px;margin-left:4px;&quot;&gt;+getUserContext(): ISecureUser&lt;/p&gt;" style="verticalAlign=top;align=left;overflow=fill;html=1;whiteSpace=wrap;fontSize=14;" vertex="1" parent="1">
          <mxGeometry x="435" y="90" width="285" height="150" as="geometry" />
        </mxCell>
        <mxCell id="eYTSgF5FzGqh6qIzUx-t-6" value="&lt;p style=&quot;margin:0px;margin-top:4px;text-align:center;&quot;&gt;&lt;b&gt;UserSecurityContext&lt;/b&gt;&lt;/p&gt;&lt;p style=&quot;margin:0px;margin-top:4px;text-align:center;&quot;&gt;&lt;b&gt;(from Secure Interfaces)&lt;/b&gt;&lt;/p&gt;&lt;hr style=&quot;border-style:solid;&quot;&gt;&lt;p style=&quot;margin:0px;margin-left:4px;&quot;&gt;&lt;br&gt;&lt;/p&gt;&lt;hr style=&quot;border-style:solid;&quot;&gt;&lt;p style=&quot;margin:0px;margin-left:4px;&quot;&gt;+setAccess(toData: SecureData, access: SecureAccess)&lt;/p&gt;&lt;p style=&quot;margin:0px;margin-left:4px;&quot;&gt;+getAccess(toData: SecureData) SecureAccess&lt;/p&gt;&lt;p style=&quot;margin:0px;margin-left:4px;&quot;&gt;+getUserId(): UniqueId&lt;/p&gt;&lt;p style=&quot;margin:0px;margin-left:4px;&quot;&gt;+UserSecurityContext(uerId: UniqueId)&lt;/p&gt;&lt;p style=&quot;margin:0px;margin-left:4px;&quot;&gt;+checkInternalTables()&lt;/p&gt;" style="verticalAlign=top;align=left;overflow=fill;html=1;whiteSpace=wrap;fontSize=14;" vertex="1" parent="1">
          <mxGeometry x="440" y="330" width="280" height="220" as="geometry" />
        </mxCell>
        <mxCell id="eYTSgF5FzGqh6qIzUx-t-7" value="&lt;p style=&quot;margin:0px;margin-top:4px;text-align:center;&quot;&gt;&lt;b&gt;SecureAccess&lt;/b&gt;&lt;/p&gt;&lt;p style=&quot;margin:0px;margin-top:4px;text-align:center;&quot;&gt;&lt;b&gt;(from Secure Interfaces)&lt;/b&gt;&lt;/p&gt;&lt;hr style=&quot;border-style:solid;&quot;&gt;&lt;p style=&quot;margin:0px;margin-left:4px;&quot;&gt;&lt;br&gt;&lt;/p&gt;&lt;hr style=&quot;border-style:solid;&quot;&gt;&lt;p style=&quot;margin:0px;margin-left:4px;&quot;&gt;+isReadable(): boolean&lt;/p&gt;&lt;p style=&quot;margin:0px;margin-left:4px;&quot;&gt;+isWriteable(): boolean&lt;/p&gt;&lt;p style=&quot;margin:0px;margin-left:4px;&quot;&gt;+isDeleteable(): boolean&lt;/p&gt;&lt;p style=&quot;margin:0px;margin-left:4px;&quot;&gt;+makeReadable()&lt;/p&gt;&lt;p style=&quot;margin:0px;margin-left:4px;&quot;&gt;+makeWriteable()&lt;/p&gt;&lt;p style=&quot;margin:0px;margin-left:4px;&quot;&gt;+makeDeleteable()&lt;/p&gt;&lt;p style=&quot;margin:0px;margin-left:4px;&quot;&gt;+new()&lt;/p&gt;" style="verticalAlign=top;align=left;overflow=fill;html=1;whiteSpace=wrap;fontSize=14;" vertex="1" parent="1">
          <mxGeometry x="475" y="600" width="220" height="220" as="geometry" />
        </mxCell>
        <mxCell id="eYTSgF5FzGqh6qIzUx-t-8" value="&lt;p style=&quot;margin:0px;margin-top:4px;text-align:center;&quot;&gt;&lt;b&gt;UniqueId&lt;/b&gt;&lt;/p&gt;&lt;p style=&quot;margin:0px;margin-top:4px;text-align:center;&quot;&gt;&lt;b&gt;(from Secure Interfaces)&lt;/b&gt;&lt;/p&gt;&lt;hr style=&quot;border-style:solid;&quot;&gt;&lt;p style=&quot;margin:0px;margin-left:4px;&quot;&gt;&lt;br&gt;&lt;/p&gt;&lt;hr style=&quot;border-style:solid;&quot;&gt;&lt;p style=&quot;margin:0px;margin-left:4px;&quot;&gt;+generate(): UniqueId&lt;/p&gt;&lt;p style=&quot;margin:0px;margin-left:4px;&quot;&gt;+asString(): String&lt;/p&gt;&lt;p style=&quot;margin:0px;margin-left:4px;&quot;&gt;+UniqueId(value: String)&lt;/p&gt;" style="verticalAlign=top;align=left;overflow=fill;html=1;whiteSpace=wrap;fontSize=14;" vertex="1" parent="1">
          <mxGeometry x="170" y="610" width="240" height="160" as="geometry" />
        </mxCell>
        <mxCell id="eYTSgF5FzGqh6qIzUx-t-9" value="&lt;p style=&quot;margin:0px;margin-top:4px;text-align:center;&quot;&gt;&lt;b&gt;&amp;lt;&amp;lt;interface&amp;gt;&amp;gt;&lt;/b&gt;&lt;/p&gt;&lt;p style=&quot;margin:0px;margin-top:4px;text-align:center;&quot;&gt;&lt;b&gt;ISecureData&lt;/b&gt;&lt;/p&gt;&lt;p style=&quot;margin:0px;margin-top:4px;text-align:center;&quot;&gt;&lt;b&gt;(from Secure Interface)&lt;/b&gt;&lt;/p&gt;&lt;hr style=&quot;border-style:solid;&quot;&gt;&lt;p style=&quot;margin:0px;margin-left:4px;&quot;&gt;+getUniqueId(): UniqueId&lt;/p&gt;" style="verticalAlign=top;align=left;overflow=fill;html=1;whiteSpace=wrap;fontSize=14;" vertex="1" parent="1">
          <mxGeometry x="-90" y="610" width="200" height="120" as="geometry" />
        </mxCell>
        <mxCell id="eYTSgF5FzGqh6qIzUx-t-14" style="rounded=0;orthogonalLoop=1;jettySize=auto;html=1;dashed=1;endSize=16;endArrow=open;endFill=0;dashPattern=8 8;fontSize=14;" edge="1" parent="1" source="eYTSgF5FzGqh6qIzUx-t-3" target="eYTSgF5FzGqh6qIzUx-t-8">
          <mxGeometry relative="1" as="geometry">
            <mxPoint x="405" y="285" as="sourcePoint" />
            <mxPoint x="580" y="215" as="targetPoint" />
          </mxGeometry>
        </mxCell>
        <mxCell id="eYTSgF5FzGqh6qIzUx-t-15" style="rounded=0;orthogonalLoop=1;jettySize=auto;html=1;dashed=1;endSize=16;endArrow=open;endFill=0;dashPattern=8 8;fontSize=14;" edge="1" parent="1" source="eYTSgF5FzGqh6qIzUx-t-3" target="eYTSgF5FzGqh6qIzUx-t-9">
          <mxGeometry relative="1" as="geometry">
            <mxPoint x="415" y="295" as="sourcePoint" />
            <mxPoint x="590" y="225" as="targetPoint" />
          </mxGeometry>
        </mxCell>
        <mxCell id="eYTSgF5FzGqh6qIzUx-t-19" value="0..1" style="text;html=1;align=center;verticalAlign=middle;resizable=0;points=[];autosize=1;strokeColor=none;fillColor=none;fontSize=14;" vertex="1" parent="1">
          <mxGeometry x="55" y="118" width="50" height="30" as="geometry" />
        </mxCell>
        <mxCell id="eYTSgF5FzGqh6qIzUx-t-20" value="0..1" style="text;html=1;align=center;verticalAlign=middle;resizable=0;points=[];autosize=1;strokeColor=none;fillColor=none;fontSize=14;" vertex="1" parent="1">
          <mxGeometry x="100" y="230" width="50" height="30" as="geometry" />
        </mxCell>
        <mxCell id="TlVZzkJS3JCfAsQ8yafC-3" style="rounded=0;orthogonalLoop=1;jettySize=auto;html=1;dashed=1;dashPattern=8 8;endArrow=block;endFill=0;endSize=16;fontSize=14;" edge="1" parent="1" source="TlVZzkJS3JCfAsQ8yafC-2" target="eYTSgF5FzGqh6qIzUx-t-9">
          <mxGeometry relative="1" as="geometry" />
        </mxCell>
        <mxCell id="TlVZzkJS3JCfAsQ8yafC-2" value="&lt;p style=&quot;margin:0px;margin-top:4px;text-align:center;&quot;&gt;&lt;b&gt;&amp;lt;&amp;lt;rde&amp;gt;&amp;gt;&lt;/b&gt;&lt;/p&gt;&lt;p style=&quot;margin:0px;margin-top:4px;text-align:center;&quot;&gt;&lt;b&gt;SampleSecureClass&lt;/b&gt;&lt;/p&gt;&lt;hr style=&quot;border-style:solid;&quot;&gt;&lt;p style=&quot;margin:0px;margin-left:4px;&quot;&gt;&lt;br&gt;&lt;/p&gt;&lt;hr style=&quot;border-style:solid;&quot;&gt;&lt;p style=&quot;margin:0px;margin-left:4px;&quot;&gt;+getUniqueId()&lt;/p&gt;" style="verticalAlign=top;align=left;overflow=fill;html=1;whiteSpace=wrap;fontSize=14;" vertex="1" parent="1">
          <mxGeometry x="-90" y="790" width="240" height="130" as="geometry" />
        </mxCell>
        <mxCell id="TlVZzkJS3JCfAsQ8yafC-5" style="rounded=0;orthogonalLoop=1;jettySize=auto;html=1;dashed=1;endSize=16;endArrow=open;endFill=0;dashPattern=8 8;fontSize=14;" edge="1" parent="1" source="eYTSgF5FzGqh6qIzUx-t-9" target="eYTSgF5FzGqh6qIzUx-t-8">
          <mxGeometry relative="1" as="geometry">
            <mxPoint x="157" y="490" as="sourcePoint" />
            <mxPoint x="246" y="620" as="targetPoint" />
          </mxGeometry>
        </mxCell>
        <mxCell id="TlVZzkJS3JCfAsQ8yafC-6" style="rounded=0;orthogonalLoop=1;jettySize=auto;html=1;dashed=1;endSize=16;endArrow=open;endFill=0;dashPattern=8 8;fontSize=14;" edge="1" parent="1" source="eYTSgF5FzGqh6qIzUx-t-3" target="eYTSgF5FzGqh6qIzUx-t-7">
          <mxGeometry relative="1" as="geometry">
            <mxPoint x="157" y="490" as="sourcePoint" />
            <mxPoint x="246" y="620" as="targetPoint" />
          </mxGeometry>
        </mxCell>
        <mxCell id="TlVZzkJS3JCfAsQ8yafC-7" style="rounded=0;orthogonalLoop=1;jettySize=auto;html=1;dashed=1;dashPattern=8 8;endArrow=block;endFill=0;endSize=16;fontSize=14;" edge="1" parent="1" source="eYTSgF5FzGqh6qIzUx-t-6" target="eYTSgF5FzGqh6qIzUx-t-3">
          <mxGeometry relative="1" as="geometry">
            <mxPoint x="33" y="800" as="sourcePoint" />
            <mxPoint x="26" y="740" as="targetPoint" />
          </mxGeometry>
        </mxCell>
        <mxCell id="hYPE_aiAwqkQTXMvTfYH-1" style="rounded=0;orthogonalLoop=1;jettySize=auto;html=1;endSize=16;endArrow=open;endFill=0;fontSize=14;" edge="1" parent="1" source="eYTSgF5FzGqh6qIzUx-t-5" target="eYTSgF5FzGqh6qIzUx-t-3">
          <mxGeometry relative="1" as="geometry">
            <mxPoint x="130" y="130" as="sourcePoint" />
            <mxPoint x="103" y="270" as="targetPoint" />
          </mxGeometry>
        </mxCell>
        <mxCell id="hYPE_aiAwqkQTXMvTfYH-2" value="0..1" style="text;html=1;align=center;verticalAlign=middle;resizable=0;points=[];autosize=1;strokeColor=none;fillColor=none;fontSize=14;" vertex="1" parent="1">
          <mxGeometry x="385" y="200" width="50" height="30" as="geometry" />
        </mxCell>
        <mxCell id="hYPE_aiAwqkQTXMvTfYH-3" value="0..1" style="text;html=1;align=center;verticalAlign=middle;resizable=0;points=[];autosize=1;strokeColor=none;fillColor=none;fontSize=14;" vertex="1" parent="1">
          <mxGeometry x="225" y="270" width="50" height="30" as="geometry" />
        </mxCell>
        <mxCell id="hYPE_aiAwqkQTXMvTfYH-4" style="rounded=0;orthogonalLoop=1;jettySize=auto;html=1;dashed=1;endSize=16;endArrow=open;endFill=0;dashPattern=8 8;fontSize=14;" edge="1" parent="1" source="eYTSgF5FzGqh6qIzUx-t-2" target="eYTSgF5FzGqh6qIzUx-t-5">
          <mxGeometry relative="1" as="geometry">
            <mxPoint x="235" y="481" as="sourcePoint" />
            <mxPoint x="485" y="647" as="targetPoint" />
          </mxGeometry>
        </mxCell>
      </root>
    </mxGraphModel>
  </diagram>
  <diagram id="c0P-2RjMuXimIAWlw3C5" name="seq secure">
    <mxGraphModel dx="1602" dy="992" grid="1" gridSize="10" guides="1" tooltips="1" connect="1" arrows="1" fold="1" page="1" pageScale="1" pageWidth="850" pageHeight="1100" math="0" shadow="0">
      <root>
        <mxCell id="0" />
        <mxCell id="1" parent="0" />
        <mxCell id="BkWGhFU9j-xUDdpY2a0s-3" value=":LoginForm" style="shape=umlLifeline;perimeter=lifelinePerimeter;whiteSpace=wrap;html=1;container=1;dropTarget=0;collapsible=0;recursiveResize=0;outlineConnect=0;portConstraint=eastwest;newEdgeStyle={&quot;curved&quot;:0,&quot;rounded&quot;:0};fontSize=14;" vertex="1" parent="1">
          <mxGeometry x="350" y="170" width="100" height="670" as="geometry" />
        </mxCell>
        <mxCell id="BkWGhFU9j-xUDdpY2a0s-4" value="" style="html=1;points=[[0,0,0,0,5],[0,1,0,0,-5],[1,0,0,0,5],[1,1,0,0,-5]];perimeter=orthogonalPerimeter;outlineConnect=0;targetShapes=umlLifeline;portConstraint=eastwest;newEdgeStyle={&quot;curved&quot;:0,&quot;rounded&quot;:0};fontSize=14;" vertex="1" parent="BkWGhFU9j-xUDdpY2a0s-3">
          <mxGeometry x="45" y="90" width="10" height="470" as="geometry" />
        </mxCell>
        <mxCell id="BkWGhFU9j-xUDdpY2a0s-32" value="checkValid()" style="html=1;align=left;spacingLeft=2;endArrow=block;rounded=0;edgeStyle=orthogonalEdgeStyle;curved=0;rounded=0;fontSize=14;" edge="1" parent="BkWGhFU9j-xUDdpY2a0s-3" source="BkWGhFU9j-xUDdpY2a0s-4" target="BkWGhFU9j-xUDdpY2a0s-4">
          <mxGeometry relative="1" as="geometry">
            <mxPoint x="55" y="140" as="sourcePoint" />
            <Array as="points">
              <mxPoint x="75" y="140" />
              <mxPoint x="75" y="159" />
            </Array>
            <mxPoint x="55" y="160" as="targetPoint" />
          </mxGeometry>
        </mxCell>
        <mxCell id="BkWGhFU9j-xUDdpY2a0s-5" value="enterUsername()" style="html=1;verticalAlign=bottom;endArrow=block;curved=0;rounded=0;fontSize=14;" edge="1" parent="1" source="BkWGhFU9j-xUDdpY2a0s-29" target="BkWGhFU9j-xUDdpY2a0s-4">
          <mxGeometry width="80" relative="1" as="geometry">
            <mxPoint x="265" y="260" as="sourcePoint" />
            <mxPoint x="505" y="260" as="targetPoint" />
            <Array as="points">
              <mxPoint x="350" y="260" />
            </Array>
          </mxGeometry>
        </mxCell>
        <mxCell id="BkWGhFU9j-xUDdpY2a0s-6" value=":IUserSubsystem" style="shape=umlLifeline;perimeter=lifelinePerimeter;whiteSpace=wrap;html=1;container=1;dropTarget=0;collapsible=0;recursiveResize=0;outlineConnect=0;portConstraint=eastwest;newEdgeStyle={&quot;curved&quot;:0,&quot;rounded&quot;:0};fontSize=14;" vertex="1" parent="1">
          <mxGeometry x="520" y="170" width="120" height="670" as="geometry" />
        </mxCell>
        <mxCell id="BkWGhFU9j-xUDdpY2a0s-37" value="" style="html=1;points=[[0,0,0,0,5],[0,1,0,0,-5],[1,0,0,0,5],[1,1,0,0,-5]];perimeter=orthogonalPerimeter;outlineConnect=0;targetShapes=umlLifeline;portConstraint=eastwest;newEdgeStyle={&quot;curved&quot;:0,&quot;rounded&quot;:0};fontSize=14;" vertex="1" parent="BkWGhFU9j-xUDdpY2a0s-6">
          <mxGeometry x="55" y="270" width="10" height="290" as="geometry" />
        </mxCell>
        <mxCell id="BkWGhFU9j-xUDdpY2a0s-49" value="setupSecurityContext()" style="html=1;align=left;spacingLeft=2;endArrow=block;rounded=0;edgeStyle=orthogonalEdgeStyle;curved=0;rounded=0;fontSize=14;" edge="1" parent="BkWGhFU9j-xUDdpY2a0s-6" source="BkWGhFU9j-xUDdpY2a0s-37" target="BkWGhFU9j-xUDdpY2a0s-37">
          <mxGeometry relative="1" as="geometry">
            <mxPoint x="70" y="460" as="sourcePoint" />
            <Array as="points">
              <mxPoint x="90" y="460" />
              <mxPoint x="90" y="479" />
            </Array>
            <mxPoint x="70" y="479" as="targetPoint" />
          </mxGeometry>
        </mxCell>
        <mxCell id="BkWGhFU9j-xUDdpY2a0s-8" value=":ISercureUser" style="shape=umlLifeline;perimeter=lifelinePerimeter;whiteSpace=wrap;html=1;container=1;dropTarget=0;collapsible=0;recursiveResize=0;outlineConnect=0;portConstraint=eastwest;newEdgeStyle={&quot;curved&quot;:0,&quot;rounded&quot;:0};fontSize=14;" vertex="1" parent="1">
          <mxGeometry x="660" y="170" width="100" height="670" as="geometry" />
        </mxCell>
        <mxCell id="BkWGhFU9j-xUDdpY2a0s-10" value=":User" style="shape=umlLifeline;perimeter=lifelinePerimeter;whiteSpace=wrap;html=1;container=1;dropTarget=0;collapsible=0;recursiveResize=0;outlineConnect=0;portConstraint=eastwest;newEdgeStyle={&quot;curved&quot;:0,&quot;rounded&quot;:0};fontSize=14;" vertex="1" parent="1">
          <mxGeometry x="790" y="170" width="100" height="670" as="geometry" />
        </mxCell>
        <mxCell id="BkWGhFU9j-xUDdpY2a0s-11" value="" style="html=1;points=[[0,0,0,0,5],[0,1,0,0,-5],[1,0,0,0,5],[1,1,0,0,-5]];perimeter=orthogonalPerimeter;outlineConnect=0;targetShapes=umlLifeline;portConstraint=eastwest;newEdgeStyle={&quot;curved&quot;:0,&quot;rounded&quot;:0};fontSize=14;" vertex="1" parent="BkWGhFU9j-xUDdpY2a0s-10">
          <mxGeometry x="45" y="290" width="10" height="140" as="geometry" />
        </mxCell>
        <mxCell id="BkWGhFU9j-xUDdpY2a0s-27" value="User" style="shape=umlActor;verticalLabelPosition=bottom;verticalAlign=top;html=1;fontSize=14;" vertex="1" parent="1">
          <mxGeometry x="210" y="130" width="30" height="60" as="geometry" />
        </mxCell>
        <mxCell id="BkWGhFU9j-xUDdpY2a0s-28" value="" style="endArrow=none;dashed=1;html=1;rounded=0;fontSize=14;" edge="1" parent="1" source="BkWGhFU9j-xUDdpY2a0s-29">
          <mxGeometry width="50" height="50" relative="1" as="geometry">
            <mxPoint x="225" y="950" as="sourcePoint" />
            <mxPoint x="225" y="218" as="targetPoint" />
          </mxGeometry>
        </mxCell>
        <mxCell id="BkWGhFU9j-xUDdpY2a0s-30" value="" style="endArrow=none;dashed=1;html=1;rounded=0;fontSize=14;" edge="1" parent="1" target="BkWGhFU9j-xUDdpY2a0s-29">
          <mxGeometry width="50" height="50" relative="1" as="geometry">
            <mxPoint x="225" y="840" as="sourcePoint" />
            <mxPoint x="245" y="218" as="targetPoint" />
          </mxGeometry>
        </mxCell>
        <mxCell id="BkWGhFU9j-xUDdpY2a0s-29" value="" style="html=1;points=[[0,0,0,0,5],[0,1,0,0,-5],[1,0,0,0,5],[1,1,0,0,-5]];perimeter=orthogonalPerimeter;outlineConnect=0;targetShapes=umlLifeline;portConstraint=eastwest;newEdgeStyle={&quot;curved&quot;:0,&quot;rounded&quot;:0};fontSize=14;" vertex="1" parent="1">
          <mxGeometry x="220" y="248" width="10" height="432" as="geometry" />
        </mxCell>
        <mxCell id="BkWGhFU9j-xUDdpY2a0s-31" value="enterPassword()" style="html=1;verticalAlign=bottom;endArrow=block;curved=0;rounded=0;fontSize=14;" edge="1" parent="1" source="BkWGhFU9j-xUDdpY2a0s-29" target="BkWGhFU9j-xUDdpY2a0s-4">
          <mxGeometry width="80" relative="1" as="geometry">
            <mxPoint x="250" y="300" as="sourcePoint" />
            <mxPoint x="395" y="300" as="targetPoint" />
            <Array as="points">
              <mxPoint x="360" y="300" />
            </Array>
          </mxGeometry>
        </mxCell>
        <mxCell id="BkWGhFU9j-xUDdpY2a0s-33" value="show invalid data field" style="html=1;verticalAlign=bottom;endArrow=block;curved=0;rounded=0;fontSize=14;dashed=1;dashPattern=8 8;" edge="1" parent="1" source="BkWGhFU9j-xUDdpY2a0s-4" target="BkWGhFU9j-xUDdpY2a0s-29">
          <mxGeometry width="80" relative="1" as="geometry">
            <mxPoint x="395" y="370" as="sourcePoint" />
            <mxPoint x="250" y="370" as="targetPoint" />
            <Array as="points">
              <mxPoint x="320" y="370" />
            </Array>
          </mxGeometry>
        </mxCell>
        <mxCell id="BkWGhFU9j-xUDdpY2a0s-34" value="[if not valid]" style="text;html=1;align=center;verticalAlign=middle;resizable=0;points=[];autosize=1;strokeColor=none;fillColor=none;fontSize=14;" vertex="1" parent="1">
          <mxGeometry x="310" y="320" width="90" height="30" as="geometry" />
        </mxCell>
        <mxCell id="BkWGhFU9j-xUDdpY2a0s-35" value="loginUser()" style="html=1;verticalAlign=bottom;endArrow=block;curved=0;rounded=0;fontSize=14;" edge="1" parent="1" source="BkWGhFU9j-xUDdpY2a0s-29" target="BkWGhFU9j-xUDdpY2a0s-4">
          <mxGeometry width="80" relative="1" as="geometry">
            <mxPoint x="230" y="424.5" as="sourcePoint" />
            <mxPoint x="395" y="424.5" as="targetPoint" />
            <Array as="points">
              <mxPoint x="360" y="424.5" />
            </Array>
          </mxGeometry>
        </mxCell>
        <mxCell id="BkWGhFU9j-xUDdpY2a0s-36" value="[if valid]" style="text;html=1;align=center;verticalAlign=middle;resizable=0;points=[];autosize=1;strokeColor=none;fillColor=none;fontSize=14;" vertex="1" parent="1">
          <mxGeometry x="220" y="378" width="70" height="30" as="geometry" />
        </mxCell>
        <mxCell id="BkWGhFU9j-xUDdpY2a0s-38" value="checkLoginInfo()" style="html=1;verticalAlign=bottom;endArrow=block;curved=0;rounded=0;fontSize=14;" edge="1" parent="1" source="BkWGhFU9j-xUDdpY2a0s-4" target="BkWGhFU9j-xUDdpY2a0s-37">
          <mxGeometry width="80" relative="1" as="geometry">
            <mxPoint x="400" y="440.5" as="sourcePoint" />
            <mxPoint x="565" y="440.5" as="targetPoint" />
            <Array as="points">
              <mxPoint x="530" y="440" />
            </Array>
          </mxGeometry>
        </mxCell>
        <mxCell id="BkWGhFU9j-xUDdpY2a0s-39" value="checkLoginInfo()" style="html=1;verticalAlign=bottom;endArrow=block;curved=0;rounded=0;fontSize=14;" edge="1" parent="1" source="BkWGhFU9j-xUDdpY2a0s-37" target="BkWGhFU9j-xUDdpY2a0s-11">
          <mxGeometry width="80" relative="1" as="geometry">
            <mxPoint x="600" y="460" as="sourcePoint" />
            <mxPoint x="770" y="460" as="targetPoint" />
            <Array as="points">
              <mxPoint x="725" y="460" />
            </Array>
          </mxGeometry>
        </mxCell>
        <mxCell id="BkWGhFU9j-xUDdpY2a0s-40" value="Alternative" style="shape=umlFrame;whiteSpace=wrap;html=1;pointerEvents=0;width=90;height=30;fontSize=14;" vertex="1" parent="1">
          <mxGeometry x="110" y="480" width="780" height="270" as="geometry" />
        </mxCell>
        <mxCell id="BkWGhFU9j-xUDdpY2a0s-41" value="[Invalid]" style="text;html=1;align=center;verticalAlign=middle;resizable=0;points=[];autosize=1;strokeColor=none;fillColor=none;fontSize=14;" vertex="1" parent="1">
          <mxGeometry x="105" y="508" width="70" height="30" as="geometry" />
        </mxCell>
        <mxCell id="BkWGhFU9j-xUDdpY2a0s-42" value="invalid" style="html=1;verticalAlign=bottom;endArrow=block;curved=0;rounded=0;fontSize=14;dashed=1;dashPattern=8 8;" edge="1" parent="1" source="BkWGhFU9j-xUDdpY2a0s-11" target="BkWGhFU9j-xUDdpY2a0s-37">
          <mxGeometry width="80" relative="1" as="geometry">
            <mxPoint x="790" y="508" as="sourcePoint" />
            <mxPoint x="625" y="508" as="targetPoint" />
            <Array as="points">
              <mxPoint x="715" y="508" />
            </Array>
          </mxGeometry>
        </mxCell>
        <mxCell id="BkWGhFU9j-xUDdpY2a0s-43" value="invalid" style="html=1;verticalAlign=bottom;endArrow=block;curved=0;rounded=0;fontSize=14;dashed=1;dashPattern=8 8;" edge="1" parent="1" source="BkWGhFU9j-xUDdpY2a0s-37" target="BkWGhFU9j-xUDdpY2a0s-4">
          <mxGeometry width="80" relative="1" as="geometry">
            <mxPoint x="565" y="520" as="sourcePoint" />
            <mxPoint x="400" y="520" as="targetPoint" />
            <Array as="points">
              <mxPoint x="490" y="520" />
            </Array>
          </mxGeometry>
        </mxCell>
        <mxCell id="BkWGhFU9j-xUDdpY2a0s-44" value="show failure login" style="html=1;verticalAlign=bottom;endArrow=block;curved=0;rounded=0;fontSize=14;dashed=1;dashPattern=8 8;" edge="1" parent="1" source="BkWGhFU9j-xUDdpY2a0s-4" target="BkWGhFU9j-xUDdpY2a0s-29">
          <mxGeometry width="80" relative="1" as="geometry">
            <mxPoint x="400" y="538" as="sourcePoint" />
            <mxPoint x="230" y="538" as="targetPoint" />
            <Array as="points">
              <mxPoint x="315" y="538" />
            </Array>
          </mxGeometry>
        </mxCell>
        <mxCell id="BkWGhFU9j-xUDdpY2a0s-45" value="[Valid]" style="text;html=1;align=center;verticalAlign=middle;resizable=0;points=[];autosize=1;strokeColor=none;fillColor=none;fontSize=14;" vertex="1" parent="1">
          <mxGeometry x="105" y="570" width="60" height="30" as="geometry" />
        </mxCell>
        <mxCell id="BkWGhFU9j-xUDdpY2a0s-46" value="valid" style="html=1;verticalAlign=bottom;endArrow=block;curved=0;rounded=0;fontSize=14;dashed=1;dashPattern=8 8;" edge="1" parent="1" source="BkWGhFU9j-xUDdpY2a0s-11" target="BkWGhFU9j-xUDdpY2a0s-37">
          <mxGeometry width="80" relative="1" as="geometry">
            <mxPoint x="820" y="590" as="sourcePoint" />
            <mxPoint x="650" y="590" as="targetPoint" />
            <Array as="points">
              <mxPoint x="735" y="590" />
            </Array>
          </mxGeometry>
        </mxCell>
        <mxCell id="BkWGhFU9j-xUDdpY2a0s-47" value="valid" style="html=1;verticalAlign=bottom;endArrow=block;curved=0;rounded=0;fontSize=14;dashed=1;dashPattern=8 8;" edge="1" parent="1" source="BkWGhFU9j-xUDdpY2a0s-37" target="BkWGhFU9j-xUDdpY2a0s-4">
          <mxGeometry width="80" relative="1" as="geometry">
            <mxPoint x="570" y="600" as="sourcePoint" />
            <mxPoint x="400" y="600" as="targetPoint" />
            <Array as="points">
              <mxPoint x="485" y="600" />
            </Array>
          </mxGeometry>
        </mxCell>
        <mxCell id="BkWGhFU9j-xUDdpY2a0s-48" value="show succes login" style="html=1;verticalAlign=bottom;endArrow=block;curved=0;rounded=0;fontSize=14;dashed=1;dashPattern=8 8;" edge="1" parent="1" source="BkWGhFU9j-xUDdpY2a0s-4" target="BkWGhFU9j-xUDdpY2a0s-29">
          <mxGeometry width="80" relative="1" as="geometry">
            <mxPoint x="395" y="620" as="sourcePoint" />
            <mxPoint x="230" y="620" as="targetPoint" />
            <Array as="points">
              <mxPoint x="315" y="620" />
            </Array>
          </mxGeometry>
        </mxCell>
        <mxCell id="BkWGhFU9j-xUDdpY2a0s-50" value="" style="html=1;points=[[0,0,0,0,5],[0,1,0,0,-5],[1,0,0,0,5],[1,1,0,0,-5]];perimeter=orthogonalPerimeter;outlineConnect=0;targetShapes=umlLifeline;portConstraint=eastwest;newEdgeStyle={&quot;curved&quot;:0,&quot;rounded&quot;:0};fontSize=14;" vertex="1" parent="1">
          <mxGeometry x="705" y="670" width="10" height="40" as="geometry" />
        </mxCell>
        <mxCell id="BkWGhFU9j-xUDdpY2a0s-51" value="new(UserId)" style="html=1;verticalAlign=bottom;endArrow=block;curved=0;rounded=0;fontSize=14;" edge="1" parent="1" source="BkWGhFU9j-xUDdpY2a0s-37" target="BkWGhFU9j-xUDdpY2a0s-50">
          <mxGeometry width="80" relative="1" as="geometry">
            <mxPoint x="560" y="680" as="sourcePoint" />
            <mxPoint x="730" y="680" as="targetPoint" />
            <Array as="points">
              <mxPoint x="685" y="680" />
            </Array>
          </mxGeometry>
        </mxCell>
        <mxCell id="BkWGhFU9j-xUDdpY2a0s-52" value="getUserContext()" style="html=1;verticalAlign=bottom;endArrow=block;curved=0;rounded=0;fontSize=14;" edge="1" parent="1" source="BkWGhFU9j-xUDdpY2a0s-4" target="BkWGhFU9j-xUDdpY2a0s-37">
          <mxGeometry width="80" relative="1" as="geometry">
            <mxPoint x="400" y="710" as="sourcePoint" />
            <mxPoint x="570" y="710" as="targetPoint" />
            <Array as="points">
              <mxPoint x="525" y="710" />
            </Array>
          </mxGeometry>
        </mxCell>
        <mxCell id="BkWGhFU9j-xUDdpY2a0s-54" value="" style="endArrow=none;dashed=1;html=1;rounded=0;entryX=1.003;entryY=0.291;entryDx=0;entryDy=0;entryPerimeter=0;exitX=0;exitY=0.298;exitDx=0;exitDy=0;exitPerimeter=0;fontSize=14;" edge="1" parent="1" source="BkWGhFU9j-xUDdpY2a0s-40" target="BkWGhFU9j-xUDdpY2a0s-40">
          <mxGeometry width="50" height="50" relative="1" as="geometry">
            <mxPoint x="-10" y="620" as="sourcePoint" />
            <mxPoint x="40" y="570" as="targetPoint" />
          </mxGeometry>
        </mxCell>
        <mxCell id="BkWGhFU9j-xUDdpY2a0s-55" value="Ref" style="shape=umlFrame;whiteSpace=wrap;html=1;pointerEvents=0;fontSize=14;" vertex="1" parent="1">
          <mxGeometry x="150" y="770" width="730" height="40" as="geometry" />
        </mxCell>
        <mxCell id="BkWGhFU9j-xUDdpY2a0s-56" value="Lấy lại mật khẩu" style="text;html=1;align=center;verticalAlign=middle;resizable=0;points=[];autosize=1;strokeColor=none;fillColor=none;fontSize=14;" vertex="1" parent="1">
          <mxGeometry x="435" y="778" width="130" height="30" as="geometry" />
        </mxCell>
      </root>
    </mxGraphModel>
  </diagram>
</mxfile>
